<svg id="Layer_1" data-name="Layer 1" xmlns="http://www.w3.org/2000/svg" viewBox="0 0 2000 2000"><defs><style>.cls-1{fill:#fea621;}.cls-2{fill:#fff;}</style></defs><title>SVG without Background</title><path d="M1676.19,276.56a1187.31,1187.31,0,0,0-319.28-158.41,1175.16,1175.16,0,0,0-606.15-29C596.14,122.7,445.14,189.81,314,283.34,273.22,313,248,363.82,248,415.8c-.6,42.9,15.71,85,44.63,115.44,28.79,31.24,69.28,49.16,111.06,49.16l2.32,0C461.77,716.79,518,855.5,572.33,989.73Q631,1134.65,689.88,1279.48,815,1588.3,940.33,1897c9.75,24.19,33.57,40.44,59.27,40.44a59.33,59.33,0,0,0,7.06-.42c23.51-2,45.18-19.13,53.85-42.44Q1249.22,1429.22,1438,963.84l155.1-382.4c.17-.3.32-.6.46-.9h.94c40.85,0,80.51-16.49,108.66-45.13a165.73,165.73,0,0,0,48.77-115.32C1753.46,362.51,1723.73,306.2,1676.19,276.56ZM792.6,1376.8c-15.91-39.38-32.36-80.11-48.68-120-1.12-2.81-2.27-5.62-3.43-8.42l-1.07-2.61A169.3,169.3,0,0,1,829,1290c33.35,30.76,54.22,75.47,57.27,122.8,3.09,41.07-8.36,83.8-31,117.91C834,1479.33,813,1427.3,792.6,1376.8Zm394.25,50.3c-12.25,30.32-24.82,61.45-37.55,92.29a109.63,109.63,0,0,1-3.29-62.6c7.23-31.14,29.64-57.56,56.88-69.33Q1194.85,1407.28,1186.85,1427.1Zm153.93-379.58c-12.3,30.23-25,61.42-37.34,92.31a115.3,115.3,0,0,1-36.26,5.81,111.81,111.81,0,0,1-47-10.31c-30.65-13.72-55.12-41.58-65.53-74.73-11.91-35.62-7.07-77.48,12.66-109.31,16.66-27.25,43.22-46.87,73-53.87a110.89,110.89,0,0,1,26.9-3.3,116,116,0,0,1,51.15,12c24,11.76,44.23,32.79,56.14,58.15C1363.34,992.09,1351.88,1020.25,1340.78,1047.52ZM1457.3,760.21c-18.27,45.14-37.09,91.61-55.85,137.62-21-24.72-47.19-43.38-75.49-53.44a171.31,171.31,0,0,0-134.18,7.32C1148.72,872.5,1114,913.13,1099,960.36a196.7,196.7,0,0,0,2.93,127.43c15.9,42.25,47.1,78,85.49,98a172.79,172.79,0,0,0,81,19.86q4.11,0,8.22-.18c-7.63,19.36-15.56,38.71-23.28,57.58-7.59,18.55-15.44,37.72-22.95,56.72a153.19,153.19,0,0,0-102.36,49.77c-23.66,25.43-38.77,59.16-42.53,94.87-4.93,44,8.43,89.62,35.9,123.68-21.33,53-43.12,106.67-64.22,158.64q-25.48,62.74-50.88,125.52c-.13.33-.25.66-.35,1-1.15,3.78-5.35,4-6.18,4-1.53,0-4.27-.41-5.38-3.12-19.15-46.79-38.46-94.45-57.13-140.55-18.57-45.84-37.74-93.17-56.82-139.81A246.66,246.66,0,0,0,939,1482.07c12.5-54.79,6.49-112.42-16.92-162.2-25.71-55.52-72.2-99.64-127.49-121-24.75-9.72-51.79-14.84-80.44-15.23C622.74,957.74,541,756.16,464.43,568c10.65-5,22-10.94,32.51-18.9C608.12,470.86,737.46,419,871,399.19a885.47,885.47,0,0,1,129.18-9.52,871.18,871.18,0,0,1,468.28,136.4c8.3,5,16.62,10.72,24.66,16.26,13.37,9.21,27.1,18.67,42.29,26C1509.08,632.28,1482.78,697.26,1457.3,760.21ZM1662,493a95.7,95.7,0,0,1-67,27.39,88.46,88.46,0,0,1-32.92-6.21l-.46-.17c-10.29-3.63-19.69-10.24-29.65-17.25-2.15-1.51-4.31-3-6.51-4.54-94.56-64.38-198-110.39-307.4-136.75A931.78,931.78,0,0,0,899.39,335c-156.1,16.57-307.66,74.12-438.54,166.59a95.31,95.31,0,0,1-56.59,18.73,90.83,90.83,0,0,1-21.8-2.64c-26.58-6.31-50.25-24.93-63.45-50.05-19.36-34.77-16.25-81.58,7.56-113.85l.24-.34c9.45-13.77,23.45-23.25,38.28-33.28l4.55-3.09C491.48,234.55,630.69,175.39,772.24,146a1119.93,1119.93,0,0,1,878,185.06c24.49,16.84,41,46.68,43,78.11C1695.73,439.65,1683.81,471.73,1662,493Z"/><path d="M650.19,668.76c-2.88-21.32.5-40.74,9.55-54.76,10-15.57,26.4-27.75,50.19-37.23,5.89-2.31,18-7.08,22-19.81a29.55,29.55,0,0,0-3.32-27c-5.61-8.45-14.52-13.48-23.83-13.48a25.4,25.4,0,0,0-8.9,1.59c-38.18,13.84-67.67,35.85-85.22,63.54-17.29,26.76-23.66,61.75-18,98.53a29.69,29.69,0,0,0,29.2,25.55,25.84,25.84,0,0,0,14.36-4.29C647,695.3,652.61,682.06,650.19,668.76Z"/><path d="M1361.59,537.06a27.64,27.64,0,0,0-18.34-6.84,28.94,28.94,0,0,0-27.09,18.35,30.3,30.3,0,0,0,9.93,36.1c14.9,12.62,25.61,26.9,31.94,42.66,9.49,22.27,11.52,50.38,6,83.57-2.74,12.83.85,24.94,9.42,31.86a27.16,27.16,0,0,0,18.38,7h0a29.15,29.15,0,0,0,28.72-23c8.59-44.53,5.92-86.14-7.65-120.19C1402.9,580.37,1385.14,556.33,1361.59,537.06Z"/><path d="M1034,1205.26c-20.5-9.4-39.73-19.32-50.28-36.93-12.28-20.69-10.56-48.07-7.67-69.84.16-1.42.4-2.9.64-4.41,1.4-8.76,3.5-21.92-6.42-32a27.37,27.37,0,0,0-21.2-9.73,28.71,28.71,0,0,0-26.6,17.16c-.08.17-.14.34-.21.51-2.91,7.79-3.74,15.8-4.46,22.87-.23,2.2-.46,4.4-.78,6.9-4.16,39.39,1.05,72.19,15.45,97.45,15.18,26.89,41.71,47.88,81.06,64.13a26.16,26.16,0,0,0,10.13,2c14.37,0,27-11.18,28.84-25.52A30,30,0,0,0,1034,1205.26Z"/><path d="M1010.3,1544.05a28.42,28.42,0,0,0-26.66,17.48c-5,10.68-1.36,21.13,1.06,28.08.39,1.13.78,2.24,1.17,3.49,5.74,17.52,6.38,32.22,2,43.49-4.23,10.31-13.91,18.8-29.58,26-12.58,5-20.68,16.67-20.3,29.16a29.66,29.66,0,0,0,8.53,20.8,29.07,29.07,0,0,0,20.58,9h0a25.59,25.59,0,0,0,9.65-1.86c18.67-7.38,52-25.27,65.73-62,13.47-34.72,4.26-71.56-5.87-96.43A28.21,28.21,0,0,0,1010.3,1544.05Z"/><path d="M945.58,599.75a25.67,25.67,0,0,0,9-1.59c10.88-3.88,16-12.82,20.05-20a46.44,46.44,0,0,1,4.79-7.42c.33-.38.64-.78.93-1.19,11.2-16.38,27.69-26.55,43-26.55a35.79,35.79,0,0,1,5.85.48,10.3,10.3,0,0,0,1.57.15c2.19.08,5.25,1.06,8.49,2.09,4.74,1.51,10.11,3.22,16,3.22a26.92,26.92,0,0,0,16.39-5.38c8.34-5.88,12.92-16.24,12-27.11s-7.24-20.19-16.45-24.41l-.39-.17a113.14,113.14,0,0,0-43.21-8.77,98.83,98.83,0,0,0-39.55,8c-21.63,9.32-40.78,26.76-57.1,52.1-.61,1-1.25,2-1.89,3-3.43,5.38-7.7,12.07-8.81,20.58l-.06.53A29.93,29.93,0,0,0,924.18,590,29.33,29.33,0,0,0,945.58,599.75Z"/><path d="M924.81,702.81C892.35,668.77,849.08,650,803,650s-89.37,18.75-121.83,52.79c-66.75,70-66.75,183.89,0,253.88,32.46,34,75.73,52.8,121.83,52.8s89.38-18.75,121.84-52.8C991.56,886.7,991.56,772.81,924.81,702.81Zm-37.69,216c-22.47,23.57-52.35,36.54-84.15,36.54s-61.68-13-84.15-36.54c-46.83-49.12-46.83-129,0-178.16,22.47-23.56,52.36-36.54,84.15-36.54s61.68,13,84.16,36.54C934,789.79,934,869.71,887.12,918.83Z"/><path d="M1169.2,511.63c-30.69,0-59.48,12.47-81.06,35.11-44.26,46.42-44.26,121.94,0,168.35,21.58,22.64,50.37,35.11,81.06,35.11s59.47-12.47,81-35.11c44.26-46.41,44.26-121.93,0-168.35C1228.67,524.1,1199.88,511.63,1169.2,511.63Zm50.67,173.25a69.31,69.31,0,0,1-101.34,0c-28.38-29.76-28.38-78.17,0-107.93a69.31,69.31,0,0,1,101.34,0C1248.24,606.71,1248.24,655.12,1219.87,684.88Z"/><path class="cls-1" d="M1669.55,286.62a1178,1178,0,0,0-316.33-157C1159.77,67.52,951.4,58,753.31,101c-154.25,33.42-302,99.23-432.23,192.12-37.7,27.42-61.08,74.82-61,122.87-.55,39.61,14.79,79.09,41.44,107.11,28.8,31.25,71.15,48.17,112.46,44.87,96.21,235.45,191.22,471.41,287.07,707q125.15,308.82,250.46,617.57c8.76,21.73,31.67,35.33,53.92,32.53,19.54-1.54,36.84-16,43.91-35q266.4-657,532.91-1313.94c1.71-2.64,2.11-8.62,6.34-7.77,38.72,1.66,78.16-13.11,106.1-41.51a154.77,154.77,0,0,0,45.19-107.07C1741.3,366.35,1713.42,313.83,1669.55,286.62ZM732.72,1261.27c-3.87-9.73-8.16-19.28-11.38-29.26,42.5,1.37,84.25,19.23,115.81,49.08,35.7,32.93,57.92,81.08,61.12,130.75,3.88,51.59-13.31,104.31-46.14,142.91C811.63,1457.23,772.72,1359,732.72,1261.27ZM1150.46,1548c-18.31-26.76-23.89-62.14-16.19-93.94,10-43.21,46.5-79.34,88.94-84.59C1198.93,1429,1175.23,1488.77,1150.46,1548Zm237.12-584c-24.77,61.87-50.28,123.44-75,185.35-31.31,11.91-66.92,11.19-97.41-3-33.58-15-60.6-45.49-72-81.91-13.12-39.23-7.8-84.56,13.81-119.42,18.14-29.68,47.55-51.56,80.4-59.26a126.4,126.4,0,0,1,86.29,9.55C1351.93,909.15,1374.94,934.12,1387.58,964Zm17-42.07c-20.39-30.18-49.24-54.31-82.81-66.23A159.28,159.28,0,0,0,1197,862.56c-40.45,19.53-72.47,57.24-86.57,101.51a183.59,183.59,0,0,0,2.74,119.48c14.82,39.35,43.73,72.76,79.89,91.61,31.21,16.64,67.39,21.85,101.93,16.35-17.18,44.81-36.1,88.89-53.71,133.52-1.29,2.63-2,7-5.73,6.55a141.38,141.38,0,0,0-98.69,46.18c-22,23.68-35.92,55.19-39.38,88-4.86,43.31,9.46,88.24,37.81,120.1-39,97.07-78.63,193.89-117.81,290.91-4.77,15.69-28,17-34.25,1.91-39.18-95.74-77.68-191.81-116.89-287.55a233,233,0,0,0,60.84-111.74c11.72-51.36,6.2-107-16.1-154.45-24.37-52.61-68.65-94.64-121-114.89-26.83-10.53-55.57-14.9-84.15-14.38Q577.73,878.58,448.87,561.73c14.25-6.18,28.38-12.85,41-22.39,113.38-79.8,244.18-132,379.35-152.07a884.45,884.45,0,0,1,605.44,128.47c25.52,15.34,48.45,35.53,76.39,46.18C1501.73,681.69,1453.65,802,1404.62,921.94Zm300.57-513.75c2.89,34.52-10.58,69.84-34.72,93.35-29.45,29.25-75,38.94-112.9,23.83-14.3-5-26.47-14.63-38.94-23.2-92.64-63.07-195.79-109.06-303.45-135A918.61,918.61,0,0,0,900.66,347C746.48,363.38,596.54,420.5,468.05,511.28c-25.27,18.82-58.23,25.59-88.37,18.14-29.83-7.08-56.43-27.79-71.2-55.91-21.74-39-17.91-91.22,8.39-126.87,11.81-17.21,29.37-28.17,46-39.52,123.64-83.78,262.46-142.93,406.9-172.9C961.57,94.31,1162.9,105,1349.6,166.12a1142.5,1142.5,0,0,1,307.45,155C1684.84,340.26,1703,373.47,1705.19,408.19Z"/><path class="cls-1" d="M630,691.09c7.08-3.77,9.8-12.61,8.3-20.4-3-21.56-.57-44.8,11.3-63.19,13.13-20.53,34.33-33.35,55.94-42,6.05-2.38,13-5.45,15.05-12.59,5.38-12.77-7.82-28.35-20.55-23.6-30.83,11.17-60.82,29.74-79.21,58.75-16.91,26.18-20.94,59.59-16.14,90.33C606,690.18,620.45,697.8,630,691.09Z"/><path class="cls-1" d="M1327.32,553.12a18.33,18.33,0,0,0,6.17,22c15.11,12.72,28.06,28.62,35.63,47.47,12.07,28.33,11.79,60.5,6.8,90.55-1.6,7.2-.69,15.75,5.43,20.44,8.8,8.41,24.9,3.18,27.42-9.11,7.24-37.5,7.18-77.85-7.06-113.59-9.87-25.71-27.2-47.75-47.94-64.67C1345.51,538.76,1331.24,542.33,1327.32,553.12Z"/><path class="cls-1" d="M933.58,1074.22c-3.19,8.51-3.35,17.84-4.55,26.81-3.22,30.55-1.42,63.28,14,90.26,16.49,29.22,45.86,46.82,75.19,58.94,9.59,4,21.18-3.49,22.42-14.2,1.6-8.4-3.79-16.83-11.28-19.67-21-9.63-43.3-20.78-55.95-41.88-13.65-23-12.71-51.51-9.27-77.35,1-8.89,4.62-19.9-2.76-27C954,1060.79,938.25,1063.3,933.58,1074.22Z"/><path class="cls-1" d="M994.69,1566.36c-3.73,7.59.35,15.69,2.63,23,5.4,16.46,8.16,35.22,1.68,51.82-6.57,16-21.35,25.82-36,32.48-7.12,2.75-13.34,9.55-13,17.94-.3,11.51,11.91,21.06,22.27,16.83,25-9.9,48.91-28.29,58.92-55.15,11-28.24,5.3-60.29-5.76-87.45C1019.94,1552.55,999.85,1553,994.69,1566.36Z"/><path class="cls-1" d="M1031.19,531.58c11.13.37,23,10.13,33.45,2.2,10.53-7.26,9.09-25.51-2.43-30.8-23.17-9.67-50.07-10.9-73.35-.81-21.57,9.3-38.68,27.29-51.57,47.28-3.6,5.94-8.11,11.75-9,18.91-1,11.93,11.35,22.53,22.27,18.45,10.32-3.68,13-16.32,19.87-24.08C984,542.77,1007,527.59,1031.19,531.58Z"/><path class="cls-1" d="M689.86,711.13c-62.38,65.41-62.38,171.84,0,237.25s163.86,65.41,226.23,0,62.37-171.84,0-237.25S752.23,645.72,689.86,711.13Zm206,216c-51.21,53.7-134.54,53.7-185.75,0s-51.21-141.09,0-194.79,134.54-53.71,185.75,0S947.06,873.44,895.85,927.15Z"/><path class="cls-1" d="M1096.86,555.06c-39.89,41.83-39.89,109.89,0,151.71s104.79,41.83,144.67,0,39.89-109.88,0-151.71S1136.75,513.23,1096.86,555.06ZM1228.59,693.2c-32.75,34.34-86,34.34-118.79,0s-32.74-90.22,0-124.57,86-34.34,118.78,0S1261.34,658.86,1228.59,693.2Z"/><path d="M1767.85,844.21a47.36,47.36,0,0,0-4.64-5.09c-1.39-1.42-6-6-6.79-6.82l-1.26-1.27-1.27-1.27c-.61-.6-1-1-1.21-1.21l-1.24-1.24-1.21-1.21-1.27-1.26-1.27-1.27c-.6-.61-1-1-1.21-1.21l-1.37-1.37a57.93,57.93,0,0,0-42.06-18.15h-49.73a57,57,0,0,0-17.59,2.77,57.79,57.79,0,0,0-17.76-2.77h-49.35a57,57,0,0,0-11.15,1.1,58.2,58.2,0,0,0-14.9-31.49c-.63-.67-1.26-1.31-1.83-1.88l-3-3-1.82-1.83-1.44-1.44-2.41-2.4-.07-.08-.45-.45-1.83-1.82-1.44-1.44-2.4-2.41-.08-.07-3.54-3.54a58.11,58.11,0,0,0-41.78-17.82,65.6,65.6,0,0,0-7.73.48l-50.83,6.86a58.09,58.09,0,0,0-48.75,45.25l-3.41,16H1334.4a57.32,57.32,0,0,0-8.08.57,116.25,116.25,0,0,0-23.47-2.27,124.44,124.44,0,0,0-78.67,27.37c-.61-.63-1.25-1.27-1.92-1.9-17.64-16.44-40.88-25.14-67.23-25.14a108.52,108.52,0,0,0-24,2.69,57.81,57.81,0,0,0-12.29-1.32h-8.13a86.77,86.77,0,0,0-19-28.37l-1.24-1.24h0l-1.24-1.24-5-5-1.23-1.24-1.07-1.06-1.24-1.24-5-5-1.24-1.24h0l-1.24-1.24-1.23-1.24a85.63,85.63,0,0,0-97.51-16.56,58.72,58.72,0,0,0-21.09-4,65.82,65.82,0,0,0-7.72.48l-50.79,6.86a58,58,0,0,0-48.76,45.25L842.86,802a123.1,123.1,0,0,0-43.67,13.51,80.34,80.34,0,0,0-44-12.67,98.72,98.72,0,0,0-21.06,2.26,57.41,57.41,0,0,0-16-2.26h-49.4A58,58,0,0,0,645.06,808c-12.8-5.45-27.33-8.21-43.2-8.21a145.13,145.13,0,0,0-17.76,1.09,86.26,86.26,0,0,0-18.2-26.7l-8.52-8.51h0l-1.24-1.24h0l-1.23-1.23h0l-1.23-1.23h0l-1.23-1.24h0l-1.23-1.24h0L550,758.18h0l-1.23-1.24h0l-1.23-1.23h0l-1.24-1.23a87.92,87.92,0,0,0-15.32-12.25c-1.27-1.26-3.58-3.55-5.4-5.38l-.13-.13h0l-.91-.91-.32-.33h0l-1.23-1.23a58.17,58.17,0,0,0-41.06-17.13,57.53,57.53,0,0,0-17.78,2.82c-.68.22-4.54,1.31-13.07,1.31-2.17,0-9.29-.2-28.37-2a233.21,233.21,0,0,0-28.54-2.12c-35.41,0-66.14,6-91.35,17.86-28,13.19-49.3,31.7-63.21,55a142,142,0,0,0-20.22,74.11c0,32.92,13,53.18,23.85,64.24.78.87,1.58,1.67,2.13,2.19s.9.92,1.24,1.24c.47.49.9.92,1.24,1.24.46.48.9.92,1.23,1.23.47.49.91.93,1.25,1.25.46.48.9.92,1.24,1.23s.51.53.75.77c.62.63,1.22,1.27,1.91,1.93.41.41.8.82,1.24,1.24s.8.82,1.24,1.24.8.81,1.24,1.23.8.82,1.24,1.24.8.82,1.24,1.24.8.82,1.24,1.24.79.82,1.23,1.24c.11.1.2.2.31.31L247.65,1020a57.25,57.25,0,0,0,11.45,48.3,59.39,59.39,0,0,0,4.69,5.17l4.19,4.2.81.81c.35.37.67.68.91.91l.33.32c.2.22.4.43.59.61l.24.25c.18.19.38.36.56.54l.43.44.25.26c.18.19.38.36.56.54l.44.45.24.25c.18.19.37.35.56.54l.44.45.24.25.55.53.44.45.25.26.56.54.43.44.25.25c.18.19.38.36.56.55s.29.31.43.44l.24.25.57.55.43.44.24.25c.18.19.38.36.56.54s.3.32.44.45l.24.25c.2.21.42.39.62.59l.62.65a57.84,57.84,0,0,0,25,15.51,83.92,83.92,0,0,0,23.34,41.3l3.61,3.61,1.29,1.29,1.63,1.63,2,2,1.24,1.24,0,.05,1.24,1.24,1.63,1.63c2.07,2.07,5.43,5.44,5.58,5.58a79.32,79.32,0,0,0,8.7,7.83c17.42,13.64,39.21,20.85,63,20.85,3.29,0,6.57-.17,9.84-.43l-20.6,97.14a57.3,57.3,0,0,0,16,53.26l8.86,8.86h0l1.24,1.24h0l1.24,1.23h0l1.24,1.24h0l1.24,1.24h0l1.24,1.24h0l1.23,1.24h0l1.23,1.24h0l1.23,1.23h0l1.24,1.24A57.48,57.48,0,0,0,486,1381.91a56.25,56.25,0,0,0,13.4-1.58l33.3-7.93a58.1,58.1,0,0,0,43.11-44.24l.69-3.27a99,99,0,0,0,16.3-5.65,81.82,81.82,0,0,0,38,8.94,83.87,83.87,0,0,0,17.27-1.75,56,56,0,0,0,7,.43h58.36a87.87,87.87,0,0,0,19.91-2.24,58.07,58.07,0,0,0,16,2.24h58.32a86.57,86.57,0,0,0,29.2-5,87.69,87.69,0,0,0,33.12,6.28,91.72,91.72,0,0,0,27.83-4.3,82.14,82.14,0,0,0,26.56,4.3c19.3,0,37.15-6.72,50.69-19,18,14.17,41.13,21.63,67.1,21.63a127.12,127.12,0,0,0,60.07-14.53,120.9,120.9,0,0,0,27.66-20.09,74.81,74.81,0,0,0,21.74,42.5l1.24,1.24,3.72,3.72,1.24,1.23,1.21,1.22,0,0,1.22,1.22,2.5,2.5,1.22,1.21,1.23,1.24,1.24,1.24,3.72,3.72a78,78,0,0,0,7.71,7c14.87,11.57,33.25,17.69,53.17,17.69a97.91,97.91,0,0,0,58.94-19.47c11.87-8.83,21.34-20.8,28.16-35.58h8.88a57.73,57.73,0,0,0,35.44-12.19,81.62,81.62,0,0,0,45.8,13.51,97.22,97.22,0,0,0,30.15-4.84,84.32,84.32,0,0,0,28.62,4.84,97.67,97.67,0,0,0,30-4.76,84.72,84.72,0,0,0,28.36,4.76,81.58,81.58,0,0,0,54.41-20.28c16.17-14.12,25.66-33.47,27.45-56a57.67,57.67,0,0,0-9.75-37.14l4.38-20.65a103.43,103.43,0,0,0,16.69,1.36c26.4,0,50.78-8,72.46-23.88,23.35-17.14,39-44.17,46.55-80.33l41.84-198.9A57.17,57.17,0,0,0,1767.85,844.21Z"/><path class="cls-1" d="M1219.92,1366.63c-19,0-36.5-5.82-50.63-16.82a73.48,73.48,0,0,1-7.3-6.59l-7.44-7.44c-13.92-13.41-21.65-32.22-21.65-52.87a84.71,84.71,0,0,1,.6-10.17c-1.49-2-2.9-4-4.22-6.11a116.15,116.15,0,0,1-40.14,34.86,123,123,0,0,1-58.13,14c-26.41,0-49.65-8-67.31-23-13.09,13.19-30.85,20.36-50.48,20.36a77.75,77.75,0,0,1-26.51-4.52,87.64,87.64,0,0,1-27.88,4.52,83.43,83.43,0,0,1-33-6.57,82.29,82.29,0,0,1-29.3,5.26H738.19a54.11,54.11,0,0,1-15.87-2.38,83.64,83.64,0,0,1-20,2.38H643.94a55,55,0,0,1-7.15-.48,79.8,79.8,0,0,1-17.09,1.79,77.29,77.29,0,0,1-37.9-9.41,95.06,95.06,0,0,1-19.94,6.85l-1.23,5.83a54,54,0,0,1-40,41.07l-33.29,7.93a52.71,52.71,0,0,1-12.45,1.47,53.39,53.39,0,0,1-37.49-15.23l-8.82-8.83a53.24,53.24,0,0,1-14.88-49.48l24.71-116.5a117.19,117.19,0,0,1-29.15,3.65c-22.88,0-43.79-6.91-60.47-20a76,76,0,0,1-8.28-7.45l-7.2-7.2c-13.94-13.46-22.29-31.09-24.31-51.26a53.33,53.33,0,0,1-35.12-16.63c-.29-.29-.62-.63-.94-1s-.86-.84-1.28-1.28c-.29-.27-1.17-1.17-1.17-1.17-.19-.17-.61-.6-1-1l-2.73-2.74a52.4,52.4,0,0,1-4.4-4.84,53.15,53.15,0,0,1-10.63-44.84L268,945.16a80.26,80.26,0,0,1-7.89-5.87,71.63,71.63,0,0,1-6.23-6l-5.65-5.63c-.58-.55-1.32-1.28-2-2.08-10.45-10.7-22.81-30-22.81-61.5a137.94,137.94,0,0,1,19.63-72c13.49-22.6,34.16-40.57,61.43-53.4,24.66-11.59,54.8-17.47,89.59-17.47a229.57,229.57,0,0,1,28,2.09c19.34,1.84,26.65,2,28.88,2,8.94,0,13.23-1.15,14.33-1.51A53.56,53.56,0,0,1,520,737.14c.12.11,6.36,6.36,8.37,8.34a83.15,83.15,0,0,1,15,11.91l8.51,8.51a80.38,80.38,0,0,1,22.24,40.72,139.2,139.2,0,0,1,27.8-2.75c16,0,30.57,2.9,43.27,8.61A53.53,53.53,0,0,1,668.72,807h49.4A53.42,53.42,0,0,1,734,809.36a94.19,94.19,0,0,1,21.2-2.39A75.54,75.54,0,0,1,799,820.34a119,119,0,0,1,47.31-14.55l3.86-18.06a53.88,53.88,0,0,1,45.28-42l50.78-6.86a63,63,0,0,1,7.17-.44,54,54,0,0,1,21.27,4.38,81.42,81.42,0,0,1,94.4,14.94l8.51,8.51A80.74,80.74,0,0,1,1099.8,807h18.89a53.69,53.69,0,0,1,12.3,1.43,103.77,103.77,0,0,1,24-2.8c25.28,0,47.55,8.31,64.41,24,.7.65,1.36,1.32,2,2s1.65,1.62,2.49,2.46a120.06,120.06,0,0,1,78.93-28.8,111.48,111.48,0,0,1,23.33,2.33,55.38,55.38,0,0,1,8.22-.63h38.7l4.1-19.23a54,54,0,0,1,45.29-42l50.81-6.86a61.87,61.87,0,0,1,7.18-.44,54,54,0,0,1,38.8,16.54l7.34,7.34c.59.59,1.18,1.18,1.77,1.82a54,54,0,0,1,13.28,47.83l-.57,2.67a53.37,53.37,0,0,1,27.52-7.64H1618a53.51,53.51,0,0,1,17.76,3,53,53,0,0,1,17.59-3h49.73a53.8,53.8,0,0,1,39,16.85c.18.17,5.51,5.51,7,7a44.14,44.14,0,0,1,4.35,4.76,53.16,53.16,0,0,1,10.78,44.79l-41.84,198.9c-7.32,35.14-22.44,61.33-44.94,77.85-21,15.32-44.51,23.08-70,23.08a98.48,98.48,0,0,1-19.89-2l-5.59,26.34a53.22,53.22,0,0,1,10,35.91c-1.7,21.38-10.71,39.77-26,53.17a77.48,77.48,0,0,1-51.69,19.25,80,80,0,0,1-28.29-5,93.37,93.37,0,0,1-30.06,5,79.85,79.85,0,0,1-28.55-5.07,93.28,93.28,0,0,1-30.22,5.07c-17.22,0-33-5-46-14.55a53.59,53.59,0,0,1-35.24,13.24h-11.56c-6.6,15.27-16,27.49-27.95,36.4A93.79,93.79,0,0,1,1219.92,1366.63Z"/><path d="M1756.16,878.71l-41.84,198.9c-6.89,33.08-20.94,57.61-41.75,72.89a108.26,108.26,0,0,1-65.13,21.48,89.36,89.36,0,0,1-26.19-3.88l-8.17,38.53a45.36,45.36,0,0,1,10.69,33.16c-1.53,19.21-9.58,35.69-23.25,47.62a69.33,69.33,0,0,1-46.26,17.23,71,71,0,0,1-28.12-5.58,85.09,85.09,0,0,1-30.23,5.58,70.92,70.92,0,0,1-28.38-5.66,85.16,85.16,0,0,1-30.39,5.66c-18,0-34-6-46.59-17.43a45.56,45.56,0,0,1-34.65,16.1h-17.14c-6.07,16.28-15.2,29-27.3,38a85.67,85.67,0,0,1-51.54,17c-17.14,0-32.88-5.21-45.56-15.08a65.44,65.44,0,0,1-6.48-5.86l-7.48-7.48c-12.43-12-19.24-28.62-19.24-47a74.15,74.15,0,0,1,1-12.55,72.71,72.71,0,0,1-12.1-20.49c-1.24,2.27-2.56,4.54-4,6.73a108.14,108.14,0,0,1-40.84,37.59,114.82,114.82,0,0,1-54.27,13.09c-24.9,0-46.67-7.56-62.94-21.89-1.69-1.49-3.35-3.14-5-4.83-1,1.36-2.06,2.64-3.14,3.88-11.64,13-28.25,20.2-46.75,20.2a68.89,68.89,0,0,1-26.39-5.08,79.07,79.07,0,0,1-28,5.08,74.6,74.6,0,0,1-32.83-7.31,73.47,73.47,0,0,1-29.49,6H738.19a46.3,46.3,0,0,1-15.61-2.72,74.54,74.54,0,0,1-20.28,2.72H643.94a44.13,44.13,0,0,1-7.47-.62,69.91,69.91,0,0,1-16.77,2,68.8,68.8,0,0,1-37.58-10.58,86.89,86.89,0,0,1-27.22,9.21l-2.35,11.2a45.68,45.68,0,0,1-33.87,34.73l-33.29,7.93a45.44,45.44,0,0,1-42.25-11.65l-8.75-8.75a45.17,45.17,0,0,1-12.64-41.92l27.67-130.47a108.91,108.91,0,0,1-40.19,7.64c-21,0-40.14-6.28-55.38-18.21a68.38,68.38,0,0,1-7.43-6.69l-7.27-7.27c-14.29-13.8-22-32.26-22.39-53.57h-3.88a45.35,45.35,0,0,1-33-14.21c-.37-.37-.74-.74-1.07-1.11a17.18,17.18,0,0,1-1.28-1.28c-.42-.37-.79-.79-1.2-1.2s-.87-.87-1.28-1.28l-2.44-2.44a45.4,45.4,0,0,1-12.8-42.12l17.59-81.49A71.39,71.39,0,0,1,265.47,933a65.45,65.45,0,0,1-5.45-5.25l-5.91-5.91a24.51,24.51,0,0,1-1.82-1.85c-9.58-9.75-20.6-27.18-20.6-55.88a129.78,129.78,0,0,1,18.46-67.74c12.63-21.18,32.13-38.07,57.86-50.18,23.54-11.06,52.49-16.68,86.07-16.68a223.24,223.24,0,0,1,27,2c19,1.82,26.88,2.11,29.9,2.11,9.54,0,14.66-1.2,16.85-1.9a44.86,44.86,0,0,1,14-2.23A45.73,45.73,0,0,1,514.1,743c.16.17,9,9,9.12,9.09a75,75,0,0,1,14.25,11.19l8.51,8.51a71.48,71.48,0,0,1,21.23,45,128.4,128.4,0,0,1,34.65-4.63c18.58,0,32.79,4.13,43.49,9.62a45.55,45.55,0,0,1,23.37-6.52h49.4A45.44,45.44,0,0,1,733.61,818a85.51,85.51,0,0,1,21.56-2.72c16.47,0,31.26,5.16,43.2,15a111.57,111.57,0,0,1,54.68-16.64l5.16-24.16a45.57,45.57,0,0,1,38.33-35.56L947.29,747a52.11,52.11,0,0,1,6.08-.37,45.7,45.7,0,0,1,21.55,5.41,73,73,0,0,1,88.26,11.48l8.51,8.51c12.06,12.1,19.25,26.84,21.06,43.16h25.94a45.37,45.37,0,0,1,12.27,1.69,95.32,95.32,0,0,1,24.07-3c23.13,0,43.45,7.51,58.77,21.8q.93.87,1.74,1.74c.45.41,3.3,3.26,3.68,3.63s.86.91,1.32,1.32,2.85,2.85,3.09,3.1a112.22,112.22,0,0,1,79.22-31.93,100.92,100.92,0,0,1,23.09,2.48,48.22,48.22,0,0,1,8.46-.78h45.39l5.49-25.77a45.63,45.63,0,0,1,38.33-35.56l50.8-6.86a51,51,0,0,1,6.07-.37,45.59,45.59,0,0,1,32.83,14l1.2,1.2,1.32,1.32,1.16,1.16,1.28,1.28c.41.41,2,2.06,2.44,2.43.53.54,1.07,1.08,1.61,1.66a45.66,45.66,0,0,1,11.27,40.51l-2.72,12.68a78.68,78.68,0,0,1,7.27,4.13,45.5,45.5,0,0,1,30.48-11.81H1618a45.45,45.45,0,0,1,17.76,3.59,45,45,0,0,1,17.59-3.59h49.73a45.25,45.25,0,0,1,33,14.25c.37.37,6.85,6.85,7.27,7.31a36.64,36.64,0,0,1,3.63,4A45,45,0,0,1,1756.16,878.71Z"/><path class="cls-1" d="M1718.12,864.13a6.88,6.88,0,0,0-1.11-1.07l-.12-.16a6.25,6.25,0,0,0-1.12-1.08l-.12-.16a6.61,6.61,0,0,0-1.12-1.08,1.12,1.12,0,0,0-.13-.16,6.56,6.56,0,0,0-1.11-1.08l-.12-.15a6.56,6.56,0,0,0-1.11-1.08l-.14-.18a6.15,6.15,0,0,0-1.11-1.07l-.12-.16a7,7,0,0,0-1.12-1.08l-.12-.16a8.21,8.21,0,0,0-6.41-3.05h-49.73a8.31,8.31,0,0,0-8.08,6.55l-23.17,109.48c-2.4,8.2-5.54,14.62-9.34,19.07a15.84,15.84,0,0,1-3.23,3c.14-.93.32-1.86.56-2.82l24.69-116.6a8.23,8.23,0,0,0-1.67-6.92,6.88,6.88,0,0,0-1.11-1.07l-.12-.16a6.25,6.25,0,0,0-1.12-1.08l-.12-.16a6.61,6.61,0,0,0-1.12-1.08.7.7,0,0,0-.13-.16,6.21,6.21,0,0,0-1.11-1.08l-.1-.13a6.56,6.56,0,0,0-1.14-1.11l-.12-.17a6.53,6.53,0,0,0-1.12-1.07l-.11-.16a7.51,7.51,0,0,0-1.13-1.08l-.12-.16a8.21,8.21,0,0,0-6.41-3.05h-49.38a8.31,8.31,0,0,0-8.09,6.55l-11.61,54.83c-1.66-18.52-6.9-32.47-15.7-41.35-.31-.34-.64-.66-1-1l-.27-.25c-.32-.35-.65-.68-1-1l-.24-.22c-.32-.36-.66-.69-1-1l-.25-.23c-.32-.35-.65-.68-1-1l-.25-.24c-.32-.36-.66-.69-1-1l-.23-.22c-.31-.35-.64-.67-1-1l-.27-.25c-8.14-9-19.46-13.63-33.65-13.63a46.94,46.94,0,0,0-5.4.31l10.49-49.22a8.24,8.24,0,0,0-2-7.34,5,5,0,0,0-.76-.68,6.69,6.69,0,0,0-.48-.56,5.58,5.58,0,0,0-.76-.68c-.15-.19-.3-.37-.45-.53a5.42,5.42,0,0,0-.79-.71,6,6,0,0,0-.45-.53,5.42,5.42,0,0,0-.79-.71c-.15-.19-.3-.37-.45-.53a5.42,5.42,0,0,0-.79-.71c-.15-.19-.31-.38-.47-.56a6.37,6.37,0,0,0-.77-.68c-.15-.19-.31-.38-.47-.56a5.47,5.47,0,0,0-.77-.67,6.09,6.09,0,0,0-.46-.55,8.31,8.31,0,0,0-7.16-2.58l-50.76,6.86a8.29,8.29,0,0,0-7,6.46L1385.1,968.42c-3,9.41-6.45,17.16-10.29,23.14l25.71-120.5a8.25,8.25,0,0,0-1.66-6.93,6.92,6.92,0,0,0-1.12-1.07l-.12-.16a6.88,6.88,0,0,0-1.11-1.07l-.13-.17a7.42,7.42,0,0,0-1.11-1.08l-.13-.16a6.6,6.6,0,0,0-1.12-1.08,1.47,1.47,0,0,0-.1-.13,6.1,6.1,0,0,0-1.13-1.1l-.13-.17a6.25,6.25,0,0,0-1.12-1.08l-.11-.15a6.25,6.25,0,0,0-1.12-1.08,1.11,1.11,0,0,0-.12-.16,8.22,8.22,0,0,0-6.42-3.06h-49.39a8.31,8.31,0,0,0-7,3.86c-6-3.75-14-5.58-24.57-5.58-20.64,0-38.66,7.3-53.58,21.7a131.53,131.53,0,0,0-32.2,50.46c-7,19.42-10.6,38.26-10.61,56a53,53,0,0,1-6,9.4,11.54,11.54,0,0,1-6.77,4.07A92.71,92.71,0,0,1,1195.6,981c1.49-6.75,3.15-13.64,4.92-20.48,3-11.78,5.33-21.91,7-30.1a124,124,0,0,0,2.56-23.72c0-15.35-4.34-27.19-12.93-35.21l-.44-.41c-.26-.28-.51-.55-.8-.83l-.44-.41c-.25-.28-.51-.55-.8-.83l-.45-.41a10.07,10.07,0,0,0-.79-.82l-.44-.42c-.25-.27-.51-.55-.74-.76l-.48-.45a10.9,10.9,0,0,0-.82-.85l-.44-.42c-.25-.27-.51-.55-.8-.82l-.44-.41a9.94,9.94,0,0,0-.78-.81C1180,855,1168.79,851,1155,851a57.5,57.5,0,0,0-27.48,6.88,7.11,7.11,0,0,0-1.1-1l-.11-.16a7.35,7.35,0,0,0-1.12-1.07l-.13-.17a8.21,8.21,0,0,0-6.41-3.05h-49.39a8.27,8.27,0,0,0-8.07,6.55L1038,968.71c-2.13,7.39-5.53,13.43-10.11,17.92-3.2,3.13-6.31,5-9.58,5.7a34.18,34.18,0,0,1,.91-4.68l24.69-116.6a8.23,8.23,0,0,0-1.67-6.92,6.53,6.53,0,0,0-1.12-1.07l-.11-.16a7,7,0,0,0-1.12-1.08l-.13-.17a6.88,6.88,0,0,0-1.11-1.07l-.13-.16a6.56,6.56,0,0,0-1.11-1.08l-.11-.13a6.53,6.53,0,0,0-1.13-1.11l-.13-.17a6.88,6.88,0,0,0-1.11-1.07l-.12-.16c-.13-.15-.26-.24-.39-.38a35.76,35.76,0,0,0,11.13-7.48,34,34,0,0,0,10.54-25.11,34.53,34.53,0,0,0-10.49-25.23c-.18-.18-.36-.33-.71-.66-.17-.19-.34-.38-.52-.56l-.74-.71c-.16-.18-.32-.36-.5-.53s-.36-.35-.72-.68a6.89,6.89,0,0,0-.53-.57l-.72-.69-.48-.51c-.2-.2-.4-.39-.74-.7-.17-.19-.34-.39-.54-.59l-.7-.66c-.17-.19-.34-.38-.52-.56l-.75-.71-.49-.53a34.52,34.52,0,0,0-25.22-10.48,34,34,0,0,0-25.1,10.54,34.83,34.83,0,0,0-10.25,25.16,34.24,34.24,0,0,0,10.3,25l.75.7c.16.18.32.36.51.55s.36.34.69.65a7.29,7.29,0,0,0,.51.55c.19.2.39.38.75.71.16.19.33.38.51.56l.72.68.52.56.72.68c.17.19.34.37.52.55s.35.34.74.71c.16.18.32.36.51.55l.69.64c.19.21.37.42.54.58a37.24,37.24,0,0,0,4.27,3.64H977.73a8.31,8.31,0,0,0-8.08,6.55L946.47,968.48c-2.4,7.94-5.59,14.28-9.48,18.85a14.37,14.37,0,0,1-7.19,4.94,34.4,34.4,0,0,1,.9-4.61l39.43-185.19a8.21,8.21,0,0,0-2-7.34,4.55,4.55,0,0,0-.76-.68,5.23,5.23,0,0,0-.48-.56,5,5,0,0,0-.76-.68,4.65,4.65,0,0,0-.45-.53,5.42,5.42,0,0,0-.79-.71,4.65,4.65,0,0,0-.45-.53,5.42,5.42,0,0,0-.79-.71,6,6,0,0,0-.45-.53,5,5,0,0,0-.79-.71c-.15-.19-.3-.37-.47-.56a5,5,0,0,0-.77-.67c-.15-.2-.31-.39-.47-.57a5,5,0,0,0-.77-.67,6.09,6.09,0,0,0-.46-.55,8.31,8.31,0,0,0-7.16-2.58l-50.76,6.86a8.28,8.28,0,0,0-7,6.47L882,855.92c-5.9-3.51-13.78-5.23-24-5.23-20.64,0-38.67,7.3-53.58,21.7a121.43,121.43,0,0,0-10.37,11.38,34.15,34.15,0,0,0-6.63-12.21,26.81,26.81,0,0,0-2.53-2.62c-.46-.49-.93-1-1.24-1.24-.46-.49-.94-1-1.24-1.24-.47-.49-.93-1-1.24-1.25-.47-.48-.94-1-1.22-1.21-.47-.5-1-1-1.25-1.26-.47-.49-.94-1-1.23-1.23-5.76-6-13.28-9.1-22.35-9.1A48.27,48.27,0,0,0,730.6,859c-.5.29-1,.6-1.52.93a7.43,7.43,0,0,0-.7-.61l-.12-.16a7.44,7.44,0,0,0-1.11-1.08l-.14-.18a6.79,6.79,0,0,0-1.11-1.06c0-.07-.09-.12-.13-.18a6.41,6.41,0,0,0-1.11-1.06l-.12-.17a8.23,8.23,0,0,0-6.41-3H668.74a8.29,8.29,0,0,0-8.08,6.55l-5.71,27a34.19,34.19,0,0,0-10.21-17.21l-.31-.32c-.37-.37-.73-.75-.93-.92l-.31-.32c-.36-.37-.73-.75-.93-.92l-.31-.32A12.58,12.58,0,0,0,641,865l-.33-.35c-.35-.35-.69-.71-.91-.9l-.32-.33c-.35-.36-.71-.73-.91-.9l-.31-.31c-.36-.38-.72-.75-.93-.93-7.85-7.93-19.77-12-35.42-12-23.66,0-43.5,7.79-59,23.14A129.85,129.85,0,0,0,510.68,925q-1.85,5.7-3.35,11.25l13.9-65.17a8.22,8.22,0,0,0-1.66-6.93,6.51,6.51,0,0,0-1.12-1.07.91.91,0,0,0-.11-.16,6.53,6.53,0,0,0-1.12-1.07,1.26,1.26,0,0,0-.13-.17,7,7,0,0,0-1.11-1.08c0-.06-.09-.11-.13-.16a6.56,6.56,0,0,0-1.11-1.08l-.1-.13a6.14,6.14,0,0,0-1.14-1.1.76.76,0,0,0-.13-.17,6.21,6.21,0,0,0-1.11-1.08l-.12-.15a6.61,6.61,0,0,0-1.12-1.08c0-.06-.32-.4-.42-.52a36.41,36.41,0,0,0,9.19-6.62,33.94,33.94,0,0,0,10.55-25.1,34.54,34.54,0,0,0-10.5-25.23l-.72-.69-.5-.54-.72-.67-.52-.57-.75-.7c-.15-.18-.32-.36-.49-.53s-.38-.36-.7-.66-.36-.4-.51-.55-.4-.39-.77-.73l-.51-.56c-.17-.17-.35-.33-.73-.68-.16-.18-.32-.37-.5-.54s-.37-.36-.71-.67a7.15,7.15,0,0,0-.53-.57,35.32,35.32,0,0,0-12.78-8.3,8.16,8.16,0,0,0-2-3.43,6.33,6.33,0,0,0-.62-.52,6.18,6.18,0,0,0-.62-.71,5.35,5.35,0,0,0-.62-.53,6.06,6.06,0,0,0-.62-.71,5.33,5.33,0,0,0-.61-.53,7.87,7.87,0,0,0-.6-.68,5.12,5.12,0,0,0-.64-.56c-.2-.24-.39-.47-.6-.68a6.09,6.09,0,0,0-.64-.56c-.2-.24-.4-.48-.63-.71a4.46,4.46,0,0,0-.61-.52,7.38,7.38,0,0,0-.63-.72,5.31,5.31,0,0,0-.61-.52,6.06,6.06,0,0,0-.62-.7,8.24,8.24,0,0,0-8.4-2c-7.62,2.47-17.15,3.72-28.33,3.72-6.57,0-18-.79-34-2.34a193,193,0,0,0-23-1.78c-28.07,0-51.7,4.42-70.22,13.13-18.93,8.91-33,20.9-41.81,35.64a93.4,93.4,0,0,0-13.18,48.66c0,13.3,3.52,23.52,10.26,30.14.36.41.75.79,1.14,1.16l.1.08c.36.41.75.79,1.14,1.16l.1.08c.36.41.74.78,1.13,1.16l.11.08c.36.4.73.77,1.12,1.14l.12.11c.35.39.73.76,1.11,1.12l.13.11c.35.4.74.78,1.13,1.16l.11.08a29.42,29.42,0,0,0,3,2.94c7.33,6.22,18,9.47,31.63,9.67l-25,116.11a8.18,8.18,0,0,0,1.65,6.92,5.74,5.74,0,0,0,1.13,1.09c0,.06.07.1.1.15a6.84,6.84,0,0,0,1.14,1.1l.09.13a7.27,7.27,0,0,0,1.14,1.1l.12.17a6.89,6.89,0,0,0,1.12,1.07l.11.15a7.14,7.14,0,0,0,1.13,1.09l.11.15a6.72,6.72,0,0,0,1.13,1.09,1.71,1.71,0,0,0,.11.14,6.9,6.9,0,0,0,1.13,1.11l.11.13a8.2,8.2,0,0,0,6.43,3.08h49.38a8.31,8.31,0,0,0,8.08-6.52l26.37-122.43H434l-22.72,107c-38.1,13-57.41,32.37-57.41,57.46,0,12,3.89,21.7,11.39,28.76.45.47.91.94,1.23,1.22.45.48.92,1,1.25,1.26.45.47.91.93,1.22,1.22.46.48.92,1,1.26,1.26.45.47.91.93,1.24,1.24.44.46.91.93,1.23,1.23a36.43,36.43,0,0,0,4,3.68c8.77,6.85,19.71,10.32,32.52,10.32a70.49,70.49,0,0,0,43-14.15c12.82-9.55,21.84-26.62,26.81-50.72l4.13-19.83a93.07,93.07,0,0,0,34.13-19.79c.62-.56,1.23-1.15,1.88-1.8l.15.15c.27.29.54.57.91.9l.34.35c.26.28.52.55.9.89l.33.34a11.14,11.14,0,0,0,.91.9l.33.34a12.44,12.44,0,0,0,.89.88l.31.33c.28.29.56.59,1,.93l.32.33c.27.29.54.58.82.83,10.91,10.25,26.08,15.45,45.09,15.45a98.75,98.75,0,0,0,53.44-15.52,8.58,8.58,0,0,0,1.09,1.74,6.39,6.39,0,0,0,1.11,1.06l.13.17a6.25,6.25,0,0,0,1.12,1.08l.11.15a6.25,6.25,0,0,0,1.12,1.08l.13.17a7,7,0,0,0,1.11,1.08l.12.15a6.25,6.25,0,0,0,1.12,1.08.76.76,0,0,0,.13.17,6.49,6.49,0,0,0,1.11,1.07l.12.17a7,7,0,0,0,1.12,1.08l.12.15a8.19,8.19,0,0,0,6.42,3.06h49.38a8.3,8.3,0,0,0,8.08-6.56l26.88-127.68a71.23,71.23,0,0,1,9.17-7.13,25.25,25.25,0,0,0,2.72,4.92,173,173,0,0,0,4.21,4.35,13.92,13.92,0,0,0,1.24,1.23,12.12,12.12,0,0,0,1.25,1.25,425.31,425.31,0,0,1,2.45,2.46,14.86,14.86,0,0,0,1.2,1.18c3.5,3.49,8.6,5.27,15.16,5.27a38.43,38.43,0,0,0,7.8-.77c-6,17.79-9,35-9,51.39,0,21.11,5.17,37.13,15.37,47.6.23.23.46.44.81.75.08.1.34.4.43.49.23.24.47.45.81.75l.43.49a10.24,10.24,0,0,0,.79.73c.09.11.37.43.47.53s.44.43.77.71l.44.5a11.16,11.16,0,0,0,.82.76c.08.09.34.4.43.49a11,11,0,0,0,.81.75l.43.49a10.87,10.87,0,0,0,.81.74c.08.1.34.41.43.5,10.26,10.53,23.21,15.87,38.49,15.87,12.91,0,24.39-3.52,34.12-10.45a87.15,87.15,0,0,0,12.39-10.78c.27.29.55.57.84.85l.24.21c.32.36.66.69,1,1l.24.22c.32.36.66.69,1,1l.23.2a14.47,14.47,0,0,0,1,1l.22.19c.32.37.67.71,1,1l.23.21a35.94,35.94,0,0,0,3.61,3.59c7.34,6.35,16.83,9.56,28.21,9.56,18.54,0,34.65-6.32,48-18.79l.14.13.46.51c.22.23.46.44.77.71l.47.54c.22.22.45.43.78.71.08.1.39.46.48.55s.43.4.77.7c.07.09.38.44.46.52s.44.42.75.69c.08.1.41.48.5.57s.42.39.75.69l.47.52a9.48,9.48,0,0,0,.77.71c.07.09.39.45.48.54,8.31,8.47,19.24,12.76,32.47,12.76,11.34,0,22.89-3,34.36-8.94l.08.1a6.25,6.25,0,0,0,1.12,1.08l.12.16a6.25,6.25,0,0,0,1.12,1.08l.12.17a7,7,0,0,0,1.12,1.08l.12.15a8.19,8.19,0,0,0,6.42,3.06H1091a8.32,8.32,0,0,0,8.08-6.55l23.17-109.47c2.43-8.32,5.64-15.06,9.54-20a16.21,16.21,0,0,1,4.68-4.28,95.84,95.84,0,0,1-2.22,16.44c-1.59,7.73-3.29,15.56-5,23.05-.52,1.82-1.38,5.47-2.7,11.48-1.25,5.65-2.48,11.68-3.65,17.91a96.42,96.42,0,0,0-1.86,17.82c0,13,4,24.11,11.82,33a33.94,33.94,0,0,0,3.16,3.18l.37.38c.33.34.66.68.87.85l.37.39c.33.34.66.68.86.85l.38.39c.33.34.66.68.86.85l.37.38c.34.35.68.7.86.84l.37.38a12,12,0,0,0,.88.88l.38.38a11.13,11.13,0,0,0,.85.85c8.15,8,19.92,12,35,12,13.71,0,27-4.91,39.52-14.59a53.33,53.33,0,0,0,7.13-6.74,6.51,6.51,0,0,0,.45.52c.22.23.46.45.7.66h0c.11.14.38.46.5.58a5.51,5.51,0,0,0,.75.66,6.57,6.57,0,0,0,.48.57,5.5,5.5,0,0,0,.76.68,6.44,6.44,0,0,0,.48.56,6.23,6.23,0,0,0,.76.68c.1.13.36.44.48.56a51.18,51.18,0,0,0,19.93,12.81c-11.44,9.33-17.23,21.61-17.23,36.54,0,12,3.88,21.7,11.38,28.76.45.47.91.94,1.24,1.24.45.47.91.94,1.24,1.24.45.47.91.93,1.24,1.24.45.46.91.93,1.22,1.22.46.48.92,1,1.25,1.26.45.46.92.93,1.24,1.23a36.43,36.43,0,0,0,4,3.68,46.22,46.22,0,0,0,11.1,6.4h-20.87a8.23,8.23,0,0,0-5.07,1.74c-4-1.91-9-2.84-15.19-2.84a50.83,50.83,0,0,0-36.45,14.76,87.42,87.42,0,0,0-21.4,33.52,109.22,109.22,0,0,0-7,37c0,14.35,3.6,25.33,10.71,32.62a8.28,8.28,0,0,0,.8.73c.07.1.35.42.43.51.24.24.48.46.81.74.08.1.35.41.44.49a9.83,9.83,0,0,0,.79.74c.09.11.36.43.46.53s.45.43.79.72c.08.1.35.41.43.49a10,10,0,0,0,.8.74c.08.1.35.41.44.5.24.25.5.48.8.74.08.1.35.41.44.5a10.1,10.1,0,0,0,.8.74c.08.1.35.41.44.5a36.61,36.61,0,0,0,5.76,4.83,31.64,31.64,0,0,0-8,21.69c0,8.65,2.88,15.68,8.33,20.69.47.5,1,1,1.24,1.23.46.5.95,1,1.24,1.25.47.49,1,1,1.23,1.22a14.25,14.25,0,0,0,1.24,1.24,16.56,16.56,0,0,0,1.25,1.26,17,17,0,0,0,1.23,1.22,27,27,0,0,0,3.14,2.94c6.17,4.8,13.81,7.24,22.69,7.24a48.15,48.15,0,0,0,29.38-9.68c8.83-6.57,15-18.13,18.34-34.32l2.31-11.08a58.43,58.43,0,0,0,7.55-3.32l.18.14.12.16a8.22,8.22,0,0,0,6.41,3.06h31.71a8.3,8.3,0,0,0,8.08-6.56l17-81c.71-.62,1.38-1.17,2-1.67a10.73,10.73,0,0,0,1,.93,11.13,11.13,0,0,0,1.24,1.24,11.13,11.13,0,0,0,1.24,1.24,13.14,13.14,0,0,0,1.24,1.24,12.05,12.05,0,0,0,1.24,1.24,11.49,11.49,0,0,0,1.26,1.26c2.82,3,6.9,4.58,12.14,4.58h.36l-4.14,19.54a83.89,83.89,0,0,0-1.92,15.93c0,11,3,19.63,8.86,25.61l.76.7.48.53a10.06,10.06,0,0,0,.75.69l.49.55c.23.24.48.46.75.7.09.1.42.48.51.57s.45.43.72.66l.49.55c.22.22.45.43.78.72.07.09.39.44.47.52s.45.44.76.71c.08.09.39.45.48.53a8.4,8.4,0,0,0,.75.69c.07.09.4.46.48.54,5.91,6,13.64,9.09,23,9.09,10,0,20-3.32,29.89-9.86,1-.65,2-1.39,3-2.22l.48.53c.22.22.45.44.85.79.13.16.29.35.38.44s.45.44.86.8a4.72,4.72,0,0,0,.38.43c5.91,6,13.63,9.09,23,9.09,10,0,20-3.32,29.89-9.86a33.23,33.23,0,0,0,2.78-2.07l.18.21c.24.25.49.48.93.88.11.14.24.28.31.36.24.25.49.48.93.88a4.39,4.39,0,0,0,.32.36c5.92,6.13,13.66,9.24,23,9.24a32.3,32.3,0,0,0,21.83-8.09c6.29-5.48,9.86-13.1,10.62-22.63a8.31,8.31,0,0,0-3.13-7.16,8,8,0,0,0-1.23-1.23,7.78,7.78,0,0,0-1.25-1.25,8.79,8.79,0,0,0-1.22-1.22,7.38,7.38,0,0,0-1.25-1.25,8.08,8.08,0,0,0-1.24-1.24,99.74,99.74,0,0,0-2.77-2.69,7.92,7.92,0,0,0-2.32-1.17l24.39-114.5a8.28,8.28,0,0,0,.07-.87,43.06,43.06,0,0,0,5.77,7.06c.35.37.72.74,1.24,1.24.34.37.71.73,1.07,1.08l.18.17c.34.37.71.73,1.23,1.23.33.35.68.69,1,1l.22.21c.34.36.7.71,1.06,1.06l.18.17c.34.37.71.73,1.24,1.24a46.38,46.38,0,0,0,3.8,3.67,50.35,50.35,0,0,0,33.68,12.45,71.66,71.66,0,0,0,43.12-14.28c13.19-9.67,22.4-26.69,27.37-50.57L1719.79,871A8.2,8.2,0,0,0,1718.12,864.13ZM326.26,890.61c-.19-2-.32-4.57-.32-7.89,0-23.94,3.34-40.65,9.91-49.67a33.31,33.31,0,0,1,3.76-4.35Zm128.84-38.2A8.3,8.3,0,0,0,447,859l-3,14.27c-.18-.16-.35-.31-.52-.44l-.12-.15a8.23,8.23,0,0,0-6.43-3.08H407.54l8.75-41.44A214.78,214.78,0,0,0,455.61,833a35.55,35.55,0,0,0,5.31,6.76,7.32,7.32,0,0,0,.7.62c.1.13.43.5.54.62s.44.41.71.63c.09.12.42.49.53.6s.44.42.7.64c.11.13.44.51.56.63s.42.39.68.61c.1.12.42.49.52.59s.46.43.72.65l.53.6c.22.22.44.41.7.63.1.12.43.5.54.61a9.1,9.1,0,0,0,.71.64c.1.12.42.49.53.6a37.72,37.72,0,0,0,4.67,4Zm46,128.64a80,80,0,0,1-5.52,10.47l7.24-33.95a146.79,146.79,0,0,0-1.76,22.1C501,980.14,501,980.59,501.06,981.05Zm95.3-71a63,63,0,0,1,7.73-11.41,48.07,48.07,0,0,1-5.15,14,55.89,55.89,0,0,1-9.78,12.9A136.85,136.85,0,0,1,596.36,910Zm41.43,56.86c-9.43,10.28-18.12,18-25.84,23-7.4,4.8-16.56,7.24-27.22,7.24a32.6,32.6,0,0,1-6.74-.63,52.15,52.15,0,0,1-1-11.25c0-.91,0-2.7.24-6.21a102.78,102.78,0,0,0,34.85-11.37,89.7,89.7,0,0,0,31.4-27.56ZM857.85,969a8.23,8.23,0,0,0-.18,1.72v.74c-1.7,6.76-4.64,12.06-8.74,15.75-3.86,3.46-7.46,5.28-10.72,5.42a67,67,0,0,1-.61-9.81c0-10.64,2-23.23,5.88-37.42,3.85-14,9.23-26.11,16-35.92,4.42-6.42,8.92-10.3,13.64-11.73Zm364.74,241a16.68,16.68,0,0,1-3.56,7.21,97.54,97.54,0,0,1,3.56-19.79,80.05,80.05,0,0,1,6.15-16Zm234.85-222.33,18.27-84.37a15.08,15.08,0,0,1,3.21-1.09,44.26,44.26,0,0,1,8.32-1.28,47.9,47.9,0,0,1,2.46,16,133.71,133.71,0,0,1-5.18,35.68c-3.39,12.19-8,22.41-13.56,30.4-3.09,4.42-7.88,9.68-13.12,9.68-.42,0-.82,0-1.21,0A26.86,26.86,0,0,1,1457.44,987.69Zm-169.17-42.26c3.85-14,9.23-26.1,16-35.92,4.47-6.49,9-10.38,13.79-11.78l-16,74.45c-1.63,6.53-4.57,11.68-8.74,15.33-3.75,3.28-7.21,5-10.28,5.15a67,67,0,0,1-.61-9.81C1282.39,972.22,1284.36,959.63,1288.27,945.43Zm2,194.38a6.25,6.25,0,0,0-.83-.75,1.09,1.09,0,0,0-.13-.17,6.12,6.12,0,0,0-1.11-1.07l-.1-.14a6.81,6.81,0,0,0-1.13-1.1l-.13-.17a6.51,6.51,0,0,0-1.12-1.07l-.11-.16a5.85,5.85,0,0,0-.52-.49c1.14,0,2.27.11,3.44.11s2.27-.08,3.4-.12a8,8,0,0,0-1.15,2.75Zm140,7.89a8.23,8.23,0,0,0-1.85-5.1,6.88,6.88,0,0,0-1.11-1.07l-.12-.16a7,7,0,0,0-1.12-1.08l-.09-.11a25.92,25.92,0,0,0,4.34-3.42,26.91,26.91,0,0,0,3-3.51ZM1559.37,1051c-6.18,7.85-9.32,17.88-9.32,29.8a43.69,43.69,0,0,0,2.53,14.86c-.12-.15-.24-.3-.37-.44a4.78,4.78,0,0,0-.79-.7,5.85,5.85,0,0,0-.45-.54,5.37,5.37,0,0,0-.79-.7,4.65,4.65,0,0,0-.45-.53,5.42,5.42,0,0,0-.79-.71c-.15-.19-.3-.38-.47-.56a5.74,5.74,0,0,0-.77-.69c-.15-.19-.31-.37-.47-.55a5.58,5.58,0,0,0-.76-.68c-.15-.19-.31-.37-.46-.55a8.35,8.35,0,0,0-7.17-2.57l-32.59,4.4a8.29,8.29,0,0,0-7,6.46l-1,4.54a8.22,8.22,0,0,0-2-3.73,5.44,5.44,0,0,0-.76-.67,5.35,5.35,0,0,0-.48-.57,4.93,4.93,0,0,0-.76-.67c-.15-.2-.3-.37-.45-.54a4.78,4.78,0,0,0-.79-.7q-.22-.29-.45-.54a5.93,5.93,0,0,0-.79-.7,6.22,6.22,0,0,0-.45-.53,5.42,5.42,0,0,0-.79-.71c-.15-.19-.3-.38-.47-.57a5.47,5.47,0,0,0-.77-.67,6.62,6.62,0,0,0-.47-.56,7.22,7.22,0,0,0-.76-.68c-.15-.19-.31-.38-.47-.55a8.16,8.16,0,0,0-7.16-2.57l-32.59,4.4a8.29,8.29,0,0,0-7,6.46l-3.39,15.85a25,25,0,0,0-7.17-13.39,2.23,2.23,0,0,0-.57-.46,6,6,0,0,0-.66-.77,2,2,0,0,0-.58-.47,6.73,6.73,0,0,0-.66-.77,2.35,2.35,0,0,0-.58-.48c-.2-.25-.41-.5-.67-.77a2.83,2.83,0,0,0-.57-.47,7.52,7.52,0,0,0-.63-.73,2.47,2.47,0,0,0-.59-.49h0a7.09,7.09,0,0,0-.69-.79,2.32,2.32,0,0,0-.56-.46,9.3,9.3,0,0,0-.66-.77,2.71,2.71,0,0,0-.58-.47,6.65,6.65,0,0,0-.66-.76,25,25,0,0,0-18.28-7.6,24.65,24.65,0,0,0-18.23,7.66,25.2,25.2,0,0,0-7.43,18.21,24.83,24.83,0,0,0,7.49,18.18,2.12,2.12,0,0,0,.56.45h0a8.36,8.36,0,0,0,.68.79,2.14,2.14,0,0,0,.55.45h0a7.45,7.45,0,0,0,.68.78,4.27,4.27,0,0,0,.41.38h-6.52a8.29,8.29,0,0,0-8.08,6.55s-.53,2.48-.54,2.48a7.26,7.26,0,0,0-1.09-1.06l-.15-.19a22,22,0,0,0-17.44-7.78,33.93,33.93,0,0,0-16.29,4.1,6.93,6.93,0,0,0-1-.88l-.12-.16a8.22,8.22,0,0,0-6.42-3.06h-18.31a70.92,70.92,0,0,0,19.28-10.23c12.82-9.55,21.84-26.62,26.82-50.72l4.13-19.83a93.15,93.15,0,0,0,34.13-19.79c.39-.35.78-.72,1.18-1.12a10.63,10.63,0,0,0,.89.87l.31.33a10.15,10.15,0,0,0,.93.91l.32.34c.26.28.53.56.92.91l.33.34a10.66,10.66,0,0,0,.89.87l.32.34c.27.29.54.57.83.84l.4.38a10.39,10.39,0,0,0,.94.94l.32.33c.27.29.54.58.83.84,9.76,9.09,23.66,13.7,41.29,13.7,24.42,0,44.7-7.19,60.26-21.36a117.07,117.07,0,0,0,26.75-35.66c.19,15.38,4.35,27.36,12.44,35.58a9.48,9.48,0,0,0,.77.71c.07.09.39.45.48.54s.43.41.77.71c.07.09.38.44.46.52s.43.42.78.72c.08.1.39.45.48.54s.41.4.74.68l.47.54c.23.22.46.43.77.7.08.09.39.45.47.53s.46.44.77.71c.08.1.39.46.48.54s.43.41.77.72l.47.52a40.68,40.68,0,0,0,9.09,7A53.79,53.79,0,0,0,1559.37,1051Zm36.94,24.56-.23.27a16.84,16.84,0,0,1,2.46-3.63A17.9,17.9,0,0,1,1596.31,1075.6Z"/><path class="cls-1" d="M943.38,1141.53l-.11-.16a7.47,7.47,0,0,0-1.12-1.08l-.12-.15a6.25,6.25,0,0,0-1.12-1.08,1.26,1.26,0,0,0-.13-.17,6.56,6.56,0,0,0-1.11-1.08l-.12-.15a6.6,6.6,0,0,0-1.12-1.08.76.76,0,0,0-.13-.17,6.88,6.88,0,0,0-1.11-1.07l-.12-.16a6.25,6.25,0,0,0-1.12-1.08l-.12-.16a8.19,8.19,0,0,0-6.42-3.06h-31.7a8.23,8.23,0,0,0-5.07,1.74c-4-1.91-9-2.84-15.19-2.84A50.83,50.83,0,0,0,841,1144.54l-.74.72a7.85,7.85,0,0,0-.7-1.57,71.54,71.54,0,0,0-4.47-4.78,7.22,7.22,0,0,0-1.24-1.23,7.6,7.6,0,0,0-1.23-1.24,8.08,8.08,0,0,0-1.24-1.24,8.08,8.08,0,0,0-1.24-1.24,8.22,8.22,0,0,0-6.41-3.08H767.15a33.49,33.49,0,0,0-17.59,4.71,35.84,35.84,0,0,0-6.73,5.23,7.73,7.73,0,0,0-.73-.67,432.28,432.28,0,0,1-3.71-3.71,7.72,7.72,0,0,0-1.25-1.24,8,8,0,0,0-1.23-1.24,8.22,8.22,0,0,0-6.41-3.08H672.92a33.55,33.55,0,0,0-17.6,4.71,36.27,36.27,0,0,0-6.41,4.91l-.25-.21-.09-.11a25.92,25.92,0,0,0,4.34-3.42,24.66,24.66,0,0,0,7.66-18.23,25.08,25.08,0,0,0-7.61-18.3,2.37,2.37,0,0,0-.56-.45,7,7,0,0,0-.67-.77,2,2,0,0,0-.58-.47,6.73,6.73,0,0,0-.66-.77,2.35,2.35,0,0,0-.58-.48,8.74,8.74,0,0,0-.67-.77,2.83,2.83,0,0,0-.57-.47,7.52,7.52,0,0,0-.63-.73,2.47,2.47,0,0,0-.59-.49h0a7.09,7.09,0,0,0-.69-.79,2.32,2.32,0,0,0-.56-.46,9.3,9.3,0,0,0-.66-.77,2.71,2.71,0,0,0-.58-.47,7.8,7.8,0,0,0-.66-.76A25,25,0,0,0,626,1084a24.65,24.65,0,0,0-18.23,7.66,25.2,25.2,0,0,0-7.43,18.21,24.83,24.83,0,0,0,7.49,18.18,2.12,2.12,0,0,0,.56.45h0a8.36,8.36,0,0,0,.68.79,2,2,0,0,0,.57.46,6.06,6.06,0,0,0,.67.77,4.23,4.23,0,0,0,.42.38h-6.53a8.29,8.29,0,0,0-8.08,6.55l-3,14.19a27.14,27.14,0,0,0-1.82-2.28,31.87,31.87,0,0,0-2.39-2.4l-.31-.31c-.36-.38-.72-.75-1.18-1.19s-.77-.8-1.24-1.24-.77-.79-1.24-1.24-.76-.79-1-1l-.32-.33c-.36-.37-.72-.74-.91-.9l-.31-.32c-.36-.37-.73-.75-.93-.92-6.35-6.46-14.63-9.73-24.6-9.73a49,49,0,0,0-10.67,1.19l-.07-.06-.13-.16a6.23,6.23,0,0,0-1.12-1.08.64.64,0,0,0-.1-.13,6.1,6.1,0,0,0-1.13-1.1.84.84,0,0,0-.13-.17,6.2,6.2,0,0,0-1.11-1.08s-.08-.11-.12-.15a6.25,6.25,0,0,0-1.12-1.08l-.12-.17a8.26,8.26,0,0,0-6.42-3.06H503a8.3,8.3,0,0,0-8.08,6.54L458.1,1302.55a8.19,8.19,0,0,0,2.31,7.63,4.1,4.1,0,0,0,.53.45,7.88,7.88,0,0,0,.72.8,4.69,4.69,0,0,0,.52.44,6.76,6.76,0,0,0,.71.79,4.1,4.1,0,0,0,.53.45,8.78,8.78,0,0,0,.7.79,6.1,6.1,0,0,0,.54.45,7.59,7.59,0,0,0,.7.79,6.1,6.1,0,0,0,.54.45,8.78,8.78,0,0,0,.7.79,4.94,4.94,0,0,0,.54.45,7.76,7.76,0,0,0,.72.8,6.09,6.09,0,0,0,.51.44,8.9,8.9,0,0,0,.71.78,8.23,8.23,0,0,0,5.77,2.35,8.05,8.05,0,0,0,1.91-.23l33.26-7.92a8.31,8.31,0,0,0,6.16-6.32l8.79-41.25a40.38,40.38,0,0,0,13.29,2c15.46,0,28.19-5,37.84-14.94a75.73,75.73,0,0,0,7.46-9,27.28,27.28,0,0,0,4.54,6.15c.22.22.45.43.76.71l.47.52c.24.24.48.46.75.7l.48.53c.24.25.49.47.76.71.09.1.42.48.51.57s.46.43.72.65l.49.56c.23.23.46.44.77.71l.48.53c.22.23.45.44.77.72l.47.52a8.4,8.4,0,0,0,.75.69c.07.09.4.46.48.54,5.92,6,13.64,9.09,23,9.09a32.9,32.9,0,0,0,17.39-4.77,5,5,0,0,0,.42.37,8.19,8.19,0,0,0,6.41,3.08h58.34a35.55,35.55,0,0,0,18.29-4.78,36.83,36.83,0,0,0,5.48-4,8.06,8.06,0,0,0,.75.69,8.55,8.55,0,0,0,1.24,1.24,8.55,8.55,0,0,0,1.24,1.24,8.94,8.94,0,0,0,1.23,1.23,13.29,13.29,0,0,0,7.66,4.33h58.35a35.51,35.51,0,0,0,18.28-4.78,34.93,34.93,0,0,0,11.53-10.69l.24.21.47.55c.24.24.49.46.77.69.1.12.36.43.47.53a7.45,7.45,0,0,0,.77.71l.47.55c.24.23.48.46.77.69.09.12.35.42.45.52a6.41,6.41,0,0,0,.78.7c.1.13.37.44.47.55,7.16,7.36,16.19,11.09,26.83,11.09,11.07,0,21-4.08,29.65-12.14a7.51,7.51,0,0,0,.65.71,4.41,4.41,0,0,0,.56.48,7.26,7.26,0,0,0,.69.78,6.37,6.37,0,0,0,.55.46,7.26,7.26,0,0,0,.69.78,6.37,6.37,0,0,0,.55.46,7.19,7.19,0,0,0,.68.77c5.32,5.11,12.17,7.7,20.37,7.7,8,0,14.38-2.6,18.95-7.73,3.62-4.08,7.13-10.54,10.75-19.75a8.32,8.32,0,0,0-2.15-9.15l-.33-.27a7.31,7.31,0,0,0-.84-.91c-.14-.13-.27-.23-.4-.33a7.21,7.21,0,0,0-.84-.9,5.23,5.23,0,0,0-.4-.34,8.35,8.35,0,0,0-.86-.92c-.13-.12-.26-.23-.38-.32a7.21,7.21,0,0,0-.84-.9c-.14-.13-.27-.24-.4-.34a9,9,0,0,0-.9-1c-.12-.1-.23-.2-.33-.27a8.23,8.23,0,0,0-.85-.91,4,4,0,0,0-.4-.34,8.29,8.29,0,0,0-.86-.92,8.65,8.65,0,0,0-1.17-.9l15.21-71.8a8.24,8.24,0,0,0-1.67-6.92A6.53,6.53,0,0,0,943.38,1141.53Zm-401,54.41a63.89,63.89,0,0,1-6,16.28l7.52-35.68a19.55,19.55,0,0,1,1.46-1.91A110.14,110.14,0,0,1,542.35,1195.94Zm98.87,26.22a7.57,7.57,0,0,0-1.13-1,8.1,8.1,0,0,0-2.33-1.17l9.15-43.21c.16.16.46.42.46.43a16.37,16.37,0,0,0,1.25,1.25c.45.48.89.94,1.22,1.22h0c.41.44.82.87,1.24,1.24a16.19,16.19,0,0,0,1.25,1.24,13.51,13.51,0,0,0,1.32,1.31,18.37,18.37,0,0,0,7.45,3.9Zm93.44,1.41a16.66,16.66,0,0,0-1.64-2.28,12.91,12.91,0,0,0-1.28-1.29,13.18,13.18,0,0,0-1.24-1.24,14.26,14.26,0,0,0-1.23-1.23,14.73,14.73,0,0,0-1.25-1.25,13,13,0,0,0-1.23-1.23,14.72,14.72,0,0,0-1.25-1.25,15.87,15.87,0,0,0-1.23-1.24,16.48,16.48,0,0,0-10.87-5.57l21.69-37.44a16.37,16.37,0,0,0,4,5.19,16.86,16.86,0,0,0,1.2,1.19c.39.42.79.84,1.23,1.23a17.34,17.34,0,0,0,1.28,1.29c.42.45.84.88,1.25,1.25s.82.86,1.23,1.23a16.86,16.86,0,0,0,1.2,1.19,14.56,14.56,0,0,0,1.37,1.36,18.29,18.29,0,0,0,7.46,3.9Zm78.2-15.2a18.7,18.7,0,0,0-5.19-1.38l7.16-12.36A103.56,103.56,0,0,0,812.86,1208.37Zm61.81-.33a20.39,20.39,0,0,1-4.17,9.11,97.23,97.23,0,0,1,3.56-19.7,80.91,80.91,0,0,1,6.33-16.36Z"/><path class="cls-1" d="M1128.6,1154.68a5.09,5.09,0,0,0-.47-.39c-.23-.27-.47-.54-.74-.82a5.87,5.87,0,0,0-.5-.42c-.23-.27-.46-.53-.69-.76a3.93,3.93,0,0,0-.55-.48c-.23-.26-.45-.53-.68-.76a4.64,4.64,0,0,0-.56-.48c-.23-.27-.46-.53-.68-.75a4.59,4.59,0,0,0-.55-.48,11.45,11.45,0,0,0-.78-.85c-.16-.15-.32-.28-.46-.4s-.47-.54-.75-.81a4.41,4.41,0,0,0-.49-.42c-.23-.27-.47-.54-.72-.79a8.2,8.2,0,0,0-5.84-2.42h-.44a8.27,8.27,0,0,0-6.61,3.31,27.3,27.3,0,0,1-5.95,5.35,30.45,30.45,0,0,1-7.18,3.85,81.38,81.38,0,0,1-11.54,1.38,123.77,123.77,0,0,0-13.16,1.71l-.35-.29a8,8,0,0,0-1.23-1.23,7.65,7.65,0,0,0-1.24-1.24,7.65,7.65,0,0,0-1.24-1.24A7.65,7.65,0,0,0,1064,1154a8,8,0,0,0-1.23-1.24,16.64,16.64,0,0,0-5.55-4,24.29,24.29,0,0,1-5.17-2,22.52,22.52,0,0,1-2.18-10.22,30.53,30.53,0,0,1,.53-5.75,7.81,7.81,0,0,0,1,1.78,25.42,25.42,0,0,0,3,3.36c.46.51,1,1,1.25,1.25a16.8,16.8,0,0,0,1.23,1.22c.48.53,1,1,1.24,1.24a16.06,16.06,0,0,0,1.25,1.25c.47.52,1,1,1.23,1.23.46.51.94,1,1.24,1.25a23.74,23.74,0,0,0,18.32,8,23,23,0,0,0,18.53-8.8c4.29-5.31,6.46-12,6.46-19.94a35.68,35.68,0,0,0-10.69-26.23c-.33-.36-.68-.71-1-1.06l-.19-.17c-.33-.37-.69-.72-1.05-1.07l-.19-.17c-.33-.37-.69-.72-1-1.07l-.19-.17c-.33-.37-.69-.72-1.06-1.07l-.19-.19c-.33-.35-.68-.7-1-1l-.2-.18c-.33-.37-.69-.72-1-1.07l-.19-.17a38.78,38.78,0,0,0-3-3c-8-7.08-18.13-10.67-30.14-10.67a57.46,57.46,0,0,0-48.74,26.92,50,50,0,0,0-7.74,26.7c0,7.46,1.21,13.93,3.58,19.22a35.7,35.7,0,0,0,3.69,6.35,63.69,63.69,0,0,0-12.63,9.07,71.57,71.57,0,0,0-16.68,23,65.39,65.39,0,0,0-6.14,27.33c0,13.23,4.24,24.22,12.48,32.54.31.34.64.67,1,1l.26.24c.31.34.64.67,1,1l.27.25c.31.34.64.67,1,1l.27.25c.3.33.63.65,1,1l.28.28c.31.33.64.65,1,1l.27.25c.32.35.65.67,1,1l.26.25a45.14,45.14,0,0,0,3.55,3.51c9.52,8.38,22.43,12.63,38.38,12.63a77.82,77.82,0,0,0,36.89-8.78,71.49,71.49,0,0,0,27-24.84,80.87,80.87,0,0,0,11.42-29.69,36.14,36.14,0,0,0,4.11-.94,40,40,0,0,0,18.37-12.19c5.19-6.06,7.82-12.75,7.82-19.89a30.35,30.35,0,0,0-1-7.57A28.27,28.27,0,0,0,1128.6,1154.68Zm-72.08-37.1a10.62,10.62,0,0,1-1.69,2.18A19.7,19.7,0,0,1,1056.52,1117.58Zm-4.61,102a29.33,29.33,0,0,1-14.61,4.2,17.57,17.57,0,0,1-3.74-.37,24.78,24.78,0,0,1-.91-6.92,41.44,41.44,0,0,1,4.54-18.46,49,49,0,0,1,2.41-4.31,25.07,25.07,0,0,0,1.05,4.71A33.17,33.17,0,0,0,1046,1209a5.68,5.68,0,0,0,1.13,1.09l.12.16a5.62,5.62,0,0,0,1.13,1.08.73.73,0,0,0,.1.14,6.06,6.06,0,0,0,1.13,1.1l.13.18a6,6,0,0,0,1.11,1.06l.12.17a6.46,6.46,0,0,0,1.12,1.07l.1.14a6.09,6.09,0,0,0,1.14,1.1l.11.16a6.56,6.56,0,0,0,1.13,1.08l.2.27A31.69,31.69,0,0,1,1051.91,1219.59Z"/><path d="M1178.45,1047c12.77,0,25.22-4.62,37-13.73a55.78,55.78,0,0,0,9.36-9.53c.3.3.62.55.92.85.1.11.18.24.29.35.31.32.64.58,1,.89.1.11.18.24.29.35.3.32.63.58,1,.88.1.12.18.25.29.36.3.31.63.58.94.88.11.11.19.25.3.36.3.31.63.58.94.88.11.11.19.25.3.36.3.31.63.58.94.88.11.11.19.25.29.36.31.31.64.58,1,.88.11.11.19.25.29.36a46.94,46.94,0,0,0,26.59,13.87c-1.83,1.2-3.61,2.41-5.29,3.67-11.56,8.68-17.42,20.35-17.42,34.69,0,10.84,3.46,19.52,10.23,25.9.41.43.82.84,1.24,1.24s.82.84,1.24,1.24.81.84,1.24,1.24.81.84,1.24,1.24.81.84,1.24,1.24.81.84,1.24,1.24a33.83,33.83,0,0,0,3.56,3.28c8,6.27,18.11,9.45,30,9.45a66.42,66.42,0,0,0,40.53-13.34c12-8.93,20.48-25.17,25.24-48.25l4.63-22.22a88.77,88.77,0,0,0,34.91-19.63c1.35-1.21,2.64-2.58,3.92-4,.76.85,1.55,1.68,2.4,2.47l.2.17c.35.35.67.73,1,1.07l.21.17c.35.35.67.73,1,1.07l.21.17c.35.35.67.73,1,1.07l.2.17c.35.35.67.73,1,1.07l.2.17c.35.35.67.73,1,1.07.06.06.14.11.2.16.35.36.67.74,1,1.08.06.06.14.11.2.16.35.36.67.74,1,1.08,9,8.35,21.92,12.59,38.48,12.59,23.36,0,42.7-6.83,57.48-20.29a112.82,112.82,0,0,0,31.31-47.85c6.17-18.3,9.3-35.76,9.3-51.9,0-24.29-5.14-41.54-15.25-51.75-.4-.44-.83-.82-1.24-1.24s-.83-.82-1.24-1.24-.83-.82-1.24-1.24-.83-.82-1.24-1.24-.83-.82-1.24-1.24-.82-.82-1.24-1.23q-11-12.24-30.58-12.27a45.83,45.83,0,0,0-10.72,1.31l11.77-55.2a4.11,4.11,0,0,0-1-3.67,3.44,3.44,0,0,0-.7-.5,3.9,3.9,0,0,0-.54-.74,3.44,3.44,0,0,0-.7-.5,4.18,4.18,0,0,0-.53-.74,3.94,3.94,0,0,0-.71-.5,4.18,4.18,0,0,0-.53-.74,3.94,3.94,0,0,0-.71-.5,4.18,4.18,0,0,0-.53-.74,4.25,4.25,0,0,0-.7-.5,4.83,4.83,0,0,0-.54-.74,4.25,4.25,0,0,0-.7-.5,4.83,4.83,0,0,0-.54-.74,4.94,4.94,0,0,0-.7-.5,4.24,4.24,0,0,0-.54-.74,4.13,4.13,0,0,0-3-1.32,3.39,3.39,0,0,0-.55,0l-50.76,6.85a4.14,4.14,0,0,0-3.48,3.23L1389,969.67c-4.36,13.69-9.7,24.08-15.87,30.89a48.21,48.21,0,0,1-5.59,5.16l28.91-135.52a4.11,4.11,0,0,0-.83-3.46,4.05,4.05,0,0,0-1-.81,2.44,2.44,0,0,0-.21-.43,4.19,4.19,0,0,0-1-.81,4.37,4.37,0,0,0-.22-.43,4.44,4.44,0,0,0-1-.81c-.09-.13-.11-.3-.21-.43a4.49,4.49,0,0,0-1-.81c-.09-.13-.11-.3-.21-.43a4.49,4.49,0,0,0-1-.81c-.09-.13-.11-.3-.21-.42a3.84,3.84,0,0,0-1-.81,4.3,4.3,0,0,0-.21-.43,3.84,3.84,0,0,0-1-.81,4.3,4.3,0,0,0-.21-.43,4.14,4.14,0,0,0-3.21-1.53h-49.39a4.13,4.13,0,0,0-4,3.27l-.75,3.54a22.52,22.52,0,0,0-3.47-3c-5.34-3.73-13-5.55-23.29-5.55a70.79,70.79,0,0,0-50.71,20.54,127.45,127.45,0,0,0-31.19,48.89c-6.88,19-10.36,37.42-10.36,54.73,0,.28,0,.54,0,.83a58.53,58.53,0,0,1-6.95,11.1c-3.31,4-7.66,5.89-13.29,5.89-.26,0-.55,0-.83,0,0-.51-.08-1-.08-1.56a75.45,75.45,0,0,1,2.13-15.06c1.49-6.77,3.15-13.7,4.94-20.61,3-11.72,5.31-21.77,6.91-29.89a120.43,120.43,0,0,0,2.48-22.92c0-14.16-3.9-25-11.6-32.17-.11-.1-.23-.18-.33-.28-.31-.31-.59-.66-.91-1l-.33-.27c-.31-.32-.59-.67-.91-1-.11-.1-.22-.18-.33-.27-.31-.32-.59-.67-.91-1l-.33-.27c-.31-.32-.58-.66-.91-1l-.33-.27c-.31-.32-.58-.66-.91-1l-.33-.27c-.31-.32-.58-.66-.91-1-.1-.1-.22-.18-.32-.28-.31-.31-.59-.66-.92-1-7.62-7.11-17.91-10.72-30.59-10.72a53.4,53.4,0,0,0-28.17,7.9l0,0a4.05,4.05,0,0,0-1-.81,2.44,2.44,0,0,0-.21-.43,4.19,4.19,0,0,0-1-.81,4.37,4.37,0,0,0-.22-.43,4.19,4.19,0,0,0-1-.81,4.37,4.37,0,0,0-.22-.43,4.44,4.44,0,0,0-1-.81c-.09-.13-.11-.3-.21-.43a4.16,4.16,0,0,0-3.21-1.52h-49.39a4.13,4.13,0,0,0-4,3.27l-23.32,110c-2.32,8.08-6.08,14.73-11.19,19.74s-10.07,7.22-15.63,7.22c-.45,0-.83,0-1.25-.06a38.92,38.92,0,0,1,1.28-9.94l24.69-116.61a4.13,4.13,0,0,0-.84-3.45,3.8,3.8,0,0,0-1-.81,3.48,3.48,0,0,0-.22-.43,3.8,3.8,0,0,0-1-.81c-.09-.14-.11-.3-.21-.43a4.24,4.24,0,0,0-1-.81c-.09-.14-.11-.3-.21-.43a4.05,4.05,0,0,0-1-.81c-.09-.14-.11-.3-.21-.43a4.05,4.05,0,0,0-1-.81,4.25,4.25,0,0,0-.21-.43,4.05,4.05,0,0,0-1-.81,3.4,3.4,0,0,1-1.45-1.67,4.13,4.13,0,0,0-3.21-1.52H977.73a4.13,4.13,0,0,0-4,3.27L950.42,969.67c-2.56,8.49-6,15.34-10.29,20.35-3.9,4.56-8.31,6.78-13.5,6.78-.44,0-.82,0-1.24-.06a38.48,38.48,0,0,1,1.27-9.94L966.1,801.61a4.12,4.12,0,0,0-1-3.66,3.5,3.5,0,0,0-.71-.5,3.85,3.85,0,0,0-.53-.74,3.94,3.94,0,0,0-.71-.5,4.18,4.18,0,0,0-.53-.74,4.25,4.25,0,0,0-.7-.5,4.83,4.83,0,0,0-.54-.74,2.79,2.79,0,0,1-1.24-1.24,2.79,2.79,0,0,1-1.24-1.24,4.94,4.94,0,0,0-.7-.5,4.24,4.24,0,0,0-.54-.74,4.43,4.43,0,0,0-.7-.5,4.24,4.24,0,0,0-.54-.74,4.12,4.12,0,0,0-3-1.32,3.39,3.39,0,0,0-.55,0l-50.75,6.85a4.14,4.14,0,0,0-3.49,3.24L884.7,863.25a22.1,22.1,0,0,0-3.37-2.88c-5.34-3.73-13-5.55-23.28-5.55a70.76,70.76,0,0,0-50.71,20.54,121.77,121.77,0,0,0-15.78,18.75,31.32,31.32,0,0,0-7.24-19.88,28.74,28.74,0,0,0-2.36-2.44c-.41-.42-.81-.84-1.24-1.23s-.81-.85-1.24-1.24-.81-.85-1.24-1.24-.81-.85-1.24-1.24-.81-.85-1.24-1.24-.81-.85-1.24-1.24c-4.92-5.17-11.41-7.82-19.35-7.82a44.14,44.14,0,0,0-22.49,6.05c-1.35.78-2.79,1.74-4.21,2.67a4.48,4.48,0,0,0-.73-.57,3.55,3.55,0,0,0-.21-.44,4.25,4.25,0,0,0-1-.8,2.86,2.86,0,0,0-.21-.43,4.19,4.19,0,0,0-1-.81c-.09-.14-.12-.3-.22-.43a4.19,4.19,0,0,0-1-.81,3.48,3.48,0,0,0-.22-.43,4.19,4.19,0,0,0-1-.81,3.48,3.48,0,0,0-.22-.43,4.19,4.19,0,0,0-1-.81,4.37,4.37,0,0,0-.22-.43,4.13,4.13,0,0,0-3.2-1.52H668.74a4.13,4.13,0,0,0-4,3.27l-23.1,109c-10,10.93-19.16,19.2-27.4,24.54-8.08,5.25-18,7.91-29.47,7.91a32.54,32.54,0,0,1-10.09-1.39c-1-3.18-1.8-7.79-1.8-14.62,0-1.3.08-4,.45-9.9A98.53,98.53,0,0,0,610.1,964a85.42,85.42,0,0,0,30.61-27.21,65.75,65.75,0,0,0,11.69-37.64c0-9.56-2.33-20.16-10.61-27.56-.41-.42-.79-.84-1.23-1.24s-.8-.84-1.24-1.24-.8-.84-1.24-1.24-.8-.84-1.24-1.24-.8-.84-1.24-1.24-.8-.84-1.24-1.23c-6.28-6.36-16.41-10.74-32.48-10.74-22.53,0-41.39,7.38-56.07,21.94a125.77,125.77,0,0,0-31.2,50.87c-6.28,19.31-9.46,37.28-9.46,53.41,0,.74.06,1.43.07,2.16-3.37,7.82-7.16,14.11-11.34,18.73a47.51,47.51,0,0,1-5.6,5.16L517.2,870.2a4.15,4.15,0,0,0-.83-3.46,4.24,4.24,0,0,0-1-.81c-.09-.14-.11-.3-.21-.43a4.05,4.05,0,0,0-1-.81c-.09-.13-.11-.3-.21-.43a4.29,4.29,0,0,0-1-.81c-.09-.13-.11-.3-.21-.43a2,2,0,0,1-1.24-1.24,4.29,4.29,0,0,0-1-.81,3.29,3.29,0,0,0-.21-.42,3.84,3.84,0,0,0-1-.81,2.14,2.14,0,0,0-.21-.43,3.84,3.84,0,0,0-1-.81,2.14,2.14,0,0,0-.21-.43,4.11,4.11,0,0,0-3.21-1.53H455.1a4.13,4.13,0,0,0-4,3.27l-4.63,21.8a1.74,1.74,0,0,0-.1-.19,4.09,4.09,0,0,0-1-.82,2.35,2.35,0,0,0-.21-.42,4.09,4.09,0,0,0-1-.82,3.23,3.23,0,0,0-.2-.42,4.48,4.48,0,0,0-1-.82c-.09-.13-.11-.29-.21-.42a4.28,4.28,0,0,0-1-.82c-.09-.13-.11-.29-.21-.42a3.84,3.84,0,0,0-1-.81c-.09-.14-.11-.3-.21-.43a4.16,4.16,0,0,0-3.22-1.54H402.45l10.66-50.48c17.05,3.78,32.11,5.69,44.84,5.69h.1a30.74,30.74,0,0,0,5.79,8c.27.26.55.49.82.75s.26.33.42.49.55.49.82.75.26.33.42.48.55.5.82.75.26.34.42.49.55.5.82.75.26.34.42.49.54.5.82.75.26.34.41.49.55.5.82.75.27.34.42.49.55.5.82.75.27.33.42.49a30.23,30.23,0,0,0,22.13,9.1,30.78,30.78,0,0,0,22.26-9.07,29.93,29.93,0,0,0,9.31-22.15,30.56,30.56,0,0,0-9.27-22.3c-.22-.21-.44-.39-.65-.59s-.38-.44-.59-.65-.44-.39-.65-.59-.38-.44-.59-.65-.44-.38-.65-.59-.38-.43-.59-.64-.44-.39-.65-.59-.38-.44-.59-.65-.44-.39-.65-.6-.38-.43-.59-.64-.44-.39-.65-.6-.38-.43-.59-.64-.43-.39-.65-.59-.38-.44-.59-.65a30.82,30.82,0,0,0-13.71-8.12,4.09,4.09,0,0,0-1.09-3.6,3.64,3.64,0,0,0-.63-.42,3.8,3.8,0,0,0-.61-.82,3.64,3.64,0,0,0-.63-.42,4.36,4.36,0,0,0-.61-.82,3.29,3.29,0,0,0-.63-.42,4.36,4.36,0,0,0-.61-.82,3.84,3.84,0,0,0-.63-.42,4,4,0,0,0-.61-.82,3.84,3.84,0,0,0-.63-.42,4,4,0,0,0-.61-.82,3.84,3.84,0,0,0-.63-.42,4,4,0,0,0-.61-.82,5.19,5.19,0,0,0-.62-.42,4.42,4.42,0,0,0-.62-.82,4.15,4.15,0,0,0-2.93-1.22,4.26,4.26,0,0,0-1.27.2c-8,2.6-18,3.92-29.6,3.92-6.72,0-18.35-.8-34.46-2.37a188.79,188.79,0,0,0-22.46-1.75c-27.46,0-50.5,4.29-68.46,12.74-18.17,8.55-31.64,20-40,34A89.28,89.28,0,0,0,273,864.1c0,12.22,3.13,21.4,9.23,27.41.39.44.82.83,1.24,1.24s.82.83,1.24,1.24.82.83,1.23,1.24.83.83,1.24,1.24.83.83,1.24,1.24.83.83,1.24,1.24a26.47,26.47,0,0,0,2.56,2.52c6.8,5.77,17,8.7,30.28,8.7a4.13,4.13,0,0,0,4.13-4.13c0-1.13-.27-2.17-2.81-7.46-.91-1.88-2-6.15-2-15.86,0-24.83,3.6-42.36,10.7-52.1a34,34,0,0,1,13.31-11.11l-45.65,211.76a4.14,4.14,0,0,0,.82,3.46,4.09,4.09,0,0,0,1,.82c.09.13.11.29.21.42a4.09,4.09,0,0,0,1,.82c.09.13.11.29.21.42a4.09,4.09,0,0,0,1,.82c.09.13.11.29.21.42a3.84,3.84,0,0,0,1,.81c.09.14.11.3.21.43a3.84,3.84,0,0,0,1,.81,3.42,3.42,0,0,0,.21.43,3.84,3.84,0,0,0,1,.81,2.44,2.44,0,0,0,.21.43,4.05,4.05,0,0,0,1,.81,2.06,2.06,0,0,0,.21.42,4.09,4.09,0,0,0,3.21,1.54h49.38a4.13,4.13,0,0,0,4-3.26L393.38,916h45.75l-24.27,114.33C377.15,1042.74,358,1061,358,1084.61c0,10.84,3.47,19.52,10.25,25.9.4.43.81.84,1.24,1.24s.81.84,1.23,1.24.81.84,1.24,1.24.81.84,1.24,1.24.81.84,1.24,1.24.81.84,1.24,1.24a33.83,33.83,0,0,0,3.56,3.28c8,6.27,18.12,9.45,30,9.45a66.4,66.4,0,0,0,40.53-13.34c12-8.93,20.48-25.17,25.24-48.25l4.63-22.22a88.67,88.67,0,0,0,34.9-19.63,56.29,56.29,0,0,0,4.55-4.69c.47.49.92,1,1.41,1.45l.21.18c.35.35.67.72,1,1.06l.21.18c.35.35.67.72,1,1.06.07.06.14.11.21.18.35.35.67.72,1,1.06l.21.17c.35.36.67.73,1,1.07l.21.17c.35.36.67.73,1,1.07l.21.17c.34.35.67.73,1,1.07l.21.17c.34.35.67.73,1,1.07,10.12,9.5,24.34,14.32,42.26,14.32,21,0,40.27-6.48,57.65-19.25l-.75,3.53a4.15,4.15,0,0,0,.83,3.46,4.24,4.24,0,0,0,1,.81c.09.14.11.3.21.43a4.05,4.05,0,0,0,1,.81c.09.13.11.3.21.43a4.29,4.29,0,0,0,1,.81c.09.13.11.3.21.43a4,4,0,0,0,1,.8,3.55,3.55,0,0,0,.21.44,4,4,0,0,0,1,.8,2.86,2.86,0,0,0,.21.43,3.84,3.84,0,0,0,1,.81,2.14,2.14,0,0,0,.21.43,4,4,0,0,0,1,.81c.09.14.11.31.22.43a4.11,4.11,0,0,0,3.21,1.53h49.38a4.13,4.13,0,0,0,4-3.28l27.16-129a76.47,76.47,0,0,1,11.18-8.72,15.87,15.87,0,0,1,4.21-1.65,26.18,26.18,0,0,0,3.62,7.93,10.64,10.64,0,0,0,2.33,2.36,10.37,10.37,0,0,0,1.24,1.24,11.17,11.17,0,0,0,1.24,1.24,11.17,11.17,0,0,0,1.24,1.24,10.37,10.37,0,0,0,1.24,1.24,10.37,10.37,0,0,0,1.24,1.24,10.37,10.37,0,0,0,1.24,1.24c2.64,2.74,6.74,4.21,12.38,4.21a29.33,29.33,0,0,0,14.74-3.57c-.47,1.2-1,2.37-1.41,3.59-6.87,19-10.36,37.42-10.36,54.73,0,20,4.78,35,14.2,44.72.29.3.6.55.89.83.12.13.23.28.35.41.29.3.6.55.89.83.12.13.23.28.35.41.29.3.6.54.89.83.12.13.23.28.35.41.29.29.6.54.89.83.12.13.22.28.35.41.29.29.6.54.89.83.12.13.22.28.35.41.29.29.59.54.88.83.13.13.23.28.36.41.28.29.59.54.89.83.12.13.22.28.35.41,9.45,9.7,21.41,14.62,35.53,14.62,12,0,22.7-3.26,31.72-9.68a84.55,84.55,0,0,0,14.73-13.5c.56.68,1.16,1.32,1.77,1.94.39.44.83.82,1.24,1.24s.83.82,1.24,1.24.83.82,1.24,1.24.83.82,1.24,1.24.83.82,1.24,1.24.83.82,1.24,1.24a32.12,32.12,0,0,0,3.2,3.19c6.57,5.68,15.15,8.55,25.51,8.55,19.06,0,35.1-7,48.12-20.62a30,30,0,0,0,2.16,2.48c.25.26.53.48.8.73s.28.35.44.51.53.48.8.73.28.35.44.51.53.48.79.73.29.35.44.51.54.48.8.73.29.35.44.51.54.48.8.73.29.35.44.51.54.48.8.73.29.35.44.51.54.48.8.73.28.35.44.51C975,1043.12,985,1047,997,1047c11.61,0,23.39-3.36,35.11-9.9,0,0,0,.08.06.12a2,2,0,0,1,1.24,1.24,4,4,0,0,0,1,.8,3.55,3.55,0,0,0,.21.44,4,4,0,0,0,1,.8,2.86,2.86,0,0,0,.21.43,3.84,3.84,0,0,0,1,.81,2.14,2.14,0,0,0,.21.43,4,4,0,0,0,1,.81c.09.14.11.31.22.43a4.11,4.11,0,0,0,3.21,1.53H1091a4.14,4.14,0,0,0,4-3.27l23.24-109.78c2.59-8.83,6-16,10.26-21.42,3.58-4.56,7.45-6.83,11.79-7.07a34.28,34.28,0,0,1,.28,4.6,94.64,94.64,0,0,1-2.32,18c-1.59,7.75-3.3,15.61-5.06,23.35-.5,1.72-1.36,5.4-2.64,11.23-1.24,5.61-2.46,11.6-3.63,17.79a93.36,93.36,0,0,0-1.78,17.05c0,12,3.63,22.16,10.8,30.33a31.27,31.27,0,0,0,2.93,2.94c.42.41.8.85,1.24,1.24s.8.85,1.24,1.24.8.85,1.24,1.23.8.86,1.24,1.24.8.86,1.24,1.24.8.86,1.24,1.24C1153.66,1043.32,1164.42,1047,1178.45,1047Zm-773.79,26a40,40,0,0,1-4.05,7.89c-1.65,2.37-4,5.11-6.57,5.88Q395.08,1079.55,404.66,1073Zm204.4-183.17a50.62,50.62,0,0,1-6.51,24.75,59,59,0,0,1-17.31,19.56,47.83,47.83,0,0,1-4.41,2.8A150,150,0,0,1,592.74,908c5.47-10,11-16.24,16.31-18.48C609.05,889.64,609.06,889.71,609.06,889.82Zm884.77,27.09a137.88,137.88,0,0,1-5.33,36.79c-3.52,12.64-8.28,23.29-14.15,31.66-5.33,7.59-10.88,11.44-16.51,11.44a27.25,27.25,0,0,1-5.23-.46,21,21,0,0,1-.14-2.51,28.92,28.92,0,0,1,.93-7l18.63-86c.85-.76,2.56-1.78,5.92-2.59a44.89,44.89,0,0,1,10.51-1.43,10.77,10.77,0,0,1,1.63.14A49.4,49.4,0,0,1,1493.83,916.91Zm-215.57,65.94c0-11,2-24,6-38.51s9.55-27,16.57-37.17c6.55-9.52,13.51-14.15,21.29-14.15.4,0,.74.05,1.12.08L1306,973.18c-1.84,7.36-5.22,13.23-10,17.44s-9.2,6.18-13.4,6.18a15,15,0,0,1-3.06-.33A57.34,57.34,0,0,1,1278.26,982.85Zm5.68,90.13a39.79,39.79,0,0,1-4,7.9c-1.65,2.37-4,5.11-6.58,5.88Q1274.36,1079.55,1283.94,1073ZM861.89,969.89a4.12,4.12,0,0,0-.09.86V972c-1.88,7.82-5.28,14-10.11,18.32s-9.47,6.49-13.88,6.49a15,15,0,0,1-3.06-.33,57.88,57.88,0,0,1-1.28-13.62c0-11,2-24,6-38.51s9.56-27,16.57-37.17c6.55-9.52,13.52-14.15,21.29-14.15.32,0,.65,0,1,0Z"/><path d="M1714.92,866.74a3.84,3.84,0,0,0-1-.81c-.09-.14-.11-.3-.21-.43a4.05,4.05,0,0,0-1-.81,3.42,3.42,0,0,0-.21-.43,4.05,4.05,0,0,0-1-.81,3.42,3.42,0,0,0-.21-.43,4.05,4.05,0,0,0-1-.81,3.42,3.42,0,0,0-.21-.43,4.05,4.05,0,0,0-1-.81,4.25,4.25,0,0,0-.21-.43,4.19,4.19,0,0,0-1-.81,4.37,4.37,0,0,0-.22-.43,4.15,4.15,0,0,0-1-.8,3.61,3.61,0,0,0-.22-.44,4.13,4.13,0,0,0-3.2-1.52h-49.73a4.13,4.13,0,0,0-4,3.27L1626,969.59c-2.56,8.76-6,15.7-10.15,20.6a17.24,17.24,0,0,1-10.75,6.33c0-.63,0-1.29,0-2a31.78,31.78,0,0,1,.94-7.71l24.69-116.61a4.12,4.12,0,0,0-.83-3.45,3.84,3.84,0,0,0-1-.81c-.09-.14-.11-.3-.21-.43a3.84,3.84,0,0,0-1-.81,3.42,3.42,0,0,0-.21-.43,4.05,4.05,0,0,0-1-.81,3.42,3.42,0,0,0-.21-.43,4.05,4.05,0,0,0-1-.81,3.42,3.42,0,0,0-.21-.43,4.19,4.19,0,0,0-1-.81,4.37,4.37,0,0,0-.22-.43,4.19,4.19,0,0,0-1-.81,4.37,4.37,0,0,0-.22-.43,4.44,4.44,0,0,0-1-.81,4.37,4.37,0,0,0-.22-.43,4.13,4.13,0,0,0-3.2-1.52h-49.38a4.14,4.14,0,0,0-4,3.27l-23.33,110.13c-1.87,9.38-2.82,17.15-2.82,23.1,0,14.78,3.8,26.14,11.3,33.76.26.26.54.49.8.74s.28.34.44.5.54.48.8.74.28.34.44.5.54.48.8.74.28.34.44.5.54.48.8.73.28.35.44.51.54.48.8.73.28.35.44.51.54.48.8.73.28.35.44.51.53.48.8.73.28.35.43.51a37,37,0,0,0,13.69,8.83,53.65,53.65,0,0,0-9.46,9.28c-5.59,7.11-8.43,16.28-8.43,27.25a37.42,37.42,0,0,0,11.39,27.59c.39.42.82.83,1.24,1.24s.82.83,1.24,1.24.82.83,1.23,1.24.83.83,1.24,1.24.83.83,1.24,1.24.83.83,1.24,1.24a44.18,44.18,0,0,0,3.47,3.35,46.32,46.32,0,0,0,31,11.46,67.64,67.64,0,0,0,40.68-13.49c12.33-9,21-25.23,25.77-48.09l41.84-198.91A4.12,4.12,0,0,0,1714.92,866.74Zm-116.49,199.89a57.23,57.23,0,0,1,8.37-5.65c-1.87,8-4.34,13.82-7.37,17.33-2.86,3.3-5.66,4.91-8.54,4.91-.29,0-.55,0-.83-.07A22,22,0,0,1,1598.43,1066.63Z"/><path d="M942.13,1148.67a4.15,4.15,0,0,0-.83-3.46,4.24,4.24,0,0,0-1-.81c-.09-.13-.11-.3-.21-.43a4.24,4.24,0,0,0-1-.81c-.09-.13-.11-.3-.21-.43a4.29,4.29,0,0,0-1-.81c-.09-.13-.11-.3-.21-.43a4,4,0,0,0-1-.8,3.55,3.55,0,0,0-.21-.44,4,4,0,0,0-1-.8,2.86,2.86,0,0,0-.21-.43,3.84,3.84,0,0,0-1-.81,2.86,2.86,0,0,0-.21-.43,3.84,3.84,0,0,0-1-.81,2.44,2.44,0,0,0-.21-.43,4.11,4.11,0,0,0-3.21-1.53h-31.7a4.13,4.13,0,0,0-4,3.06c-.16-.11-.31-.23-.47-.33-3.68-2.58-8.85-3.83-15.8-3.83a46.83,46.83,0,0,0-33.58,13.6,83.22,83.22,0,0,0-20.39,32,105.3,105.3,0,0,0-6.74,35.64c0,.55,0,1.07,0,1.6a1,1,0,0,0-.12-.17,11.21,11.21,0,0,0-1.07-1,2.07,2.07,0,0,0-.17-.24C813,1212.42,809.5,1211,805,1211a21.62,21.62,0,0,0-4.75.56L836,1149.88a4.12,4.12,0,0,0,0-4.13,127.85,127.85,0,0,0-2.6-2.64,15425047019627.06,15425047019627.06,0,0,0-2.48-2.48,4.07,4.07,0,0,0-1.24-1.24,4.07,4.07,0,0,0-1.24-1.24,10.14,10.14,0,0,0-4.69-3.14H767.15a29.4,29.4,0,0,0-15.46,4.12,30.54,30.54,0,0,0-9.39,8.72,4,4,0,0,0-.55-2.1,4.14,4.14,0,0,0-1.36-1.4,4.07,4.07,0,0,0-1.24-1.24,4.19,4.19,0,0,0-1.24-1.24,15425047019196.21,15425047019196.21,0,0,1-2.48-2.48,4.31,4.31,0,0,0-1.24-1.24,4.19,4.19,0,0,0-1.24-1.24,4.1,4.1,0,0,0-3.45-1.9H672.92a29.4,29.4,0,0,0-15.46,4.12,30.79,30.79,0,0,0-8.84,7.92,4.23,4.23,0,0,0-.81-1.84,4.05,4.05,0,0,0-1-.81c-.09-.13-.11-.3-.21-.43a4.05,4.05,0,0,0-1-.81,3.4,3.4,0,0,1-1.45-1.67,4,4,0,0,0-1-.8,3.55,3.55,0,0,0-.21-.44,4,4,0,0,0-1-.8,2.14,2.14,0,0,0-.21-.43s-.08-.06-.11-.09a21.37,21.37,0,0,0,8.52-5.12,20.67,20.67,0,0,0,6.42-15.28,21,21,0,0,0-6.39-15.36c-.21-.22-.46-.36-.68-.57s-.34-.46-.56-.67-.46-.36-.68-.56-.34-.47-.56-.68-.46-.36-.67-.56-.35-.46-.57-.68-.45-.36-.67-.56-.35-.46-.56-.68-.46-.36-.68-.56-.35-.46-.56-.68-.46-.36-.68-.56-.35-.46-.56-.68-.46-.36-.68-.56-.35-.46-.56-.67a21,21,0,0,0-15.36-6.39,20.63,20.63,0,0,0-15.28,6.42,21.19,21.19,0,0,0-6.25,15.32,20.86,20.86,0,0,0,6.28,15.26c.21.21.46.36.67.56s.35.46.57.68.46.36.67.56.35.46.57.68.45.35.67.56.35.46.57.67.45.36.67.57.35.46.56.67.46.36.68.56.35.47.56.68.46.36.68.56.35.47.56.68.46.36.68.56.35.47.56.68c.47.47,1,.81,1.48,1.23h-16.7a4.13,4.13,0,0,0-4,3.27l-5.57,26.3a27.7,27.7,0,0,0-8.63-14.74c-.41-.41-.81-.85-1.24-1.23s-.8-.86-1.23-1.24-.81-.86-1.24-1.24-.81-.86-1.24-1.24-.81-.86-1.24-1.24-.81-.85-1.24-1.24c-5.53-5.62-12.8-8.5-21.66-8.5a44.61,44.61,0,0,0-11.95,1.64,4.22,4.22,0,0,0-.67-.53,3.48,3.48,0,0,0-.22-.43,4,4,0,0,0-1-.81c-.09-.14-.11-.3-.21-.43a4.24,4.24,0,0,0-1-.81c-.09-.14-.11-.3-.21-.43a4.05,4.05,0,0,0-1-.81c-.09-.13-.11-.3-.21-.43a4.29,4.29,0,0,0-1-.81c-.09-.13-.11-.3-.21-.43a4.29,4.29,0,0,0-1-.81c-.09-.13-.11-.3-.21-.42a4.12,4.12,0,0,0-3.21-1.54H503a4.13,4.13,0,0,0-4,3.27l-36.77,173.28a4.1,4.1,0,0,0,1.15,3.81,3.47,3.47,0,0,0,.57.37,3.74,3.74,0,0,0,.67.87,3.47,3.47,0,0,0,.57.37,3.74,3.74,0,0,0,.67.87,4.28,4.28,0,0,0,.57.37,3.74,3.74,0,0,0,.67.87,4.17,4.17,0,0,0,.56.37,4.08,4.08,0,0,0,.68.87,4.17,4.17,0,0,0,.56.37,4.35,4.35,0,0,0,.68.87,4.17,4.17,0,0,0,.56.37,4.35,4.35,0,0,0,.68.87,4.17,4.17,0,0,0,.56.37,4.69,4.69,0,0,0,.67.87,4.15,4.15,0,0,0,2.89,1.17,4.49,4.49,0,0,0,1-.11l33.24-7.93a4.14,4.14,0,0,0,3.09-3.16l9.87-46.33c4.08,2.53,9.51,3.81,16.25,3.81,14.3,0,26-4.61,34.88-13.69a71.78,71.78,0,0,0,11.33-15.28,25.84,25.84,0,0,0,6.57,12.45c.26.26.53.49.8.74s.28.34.44.5.53.49.8.74.28.34.44.5.53.49.8.74.28.34.43.5.54.49.81.73.28.35.43.51.54.49.81.74.28.34.43.5.54.48.81.73.28.35.43.5.54.49.81.74.28.35.43.5c5.11,5.21,11.84,7.85,20,7.85a28.82,28.82,0,0,0,17.91-6,3.27,3.27,0,0,0,.37.28,15425047019225,15425047019225,0,0,0,2.48,2.48,4.12,4.12,0,0,0,3.46,1.91h58.34a31.44,31.44,0,0,0,16.19-4.21,32,32,0,0,0,7.66-6.26,127.09,127.09,0,0,1,2.39,2.36,4,4,0,0,0,1.24,1.24,3.87,3.87,0,0,0,1.24,1.24,3.87,3.87,0,0,0,1.24,1.24,4,4,0,0,0,1.23,1.24,4.19,4.19,0,0,0,1.24,1.24,4.12,4.12,0,0,0,3.46,1.91h58.35a31.49,31.49,0,0,0,16.19-4.21,30.58,30.58,0,0,0,10.91-10.56,30,30,0,0,0,1.76-3.49c.31.35.58.74.9,1.07s.62.57.93.86c.11.12.19.26.31.38.3.31.62.57.93.86.11.12.19.26.31.38.3.3.62.57.92.86.11.12.2.26.31.38.3.3.63.57.93.86.11.12.2.26.31.37.3.31.62.58.93.87.11.12.2.26.31.37.3.31.62.58.93.87.11.12.2.26.31.37.3.31.62.58.93.87.11.12.2.26.31.37a32.1,32.1,0,0,0,23.87,9.84c11.25,0,21.17-4.69,29.63-13.84.12.12.27.2.4.32s.41.54.66.78.4.29.58.46.41.54.66.78.4.29.58.45.41.55.66.79.4.29.58.45.41.55.66.78.39.3.58.46.41.55.65.78.4.29.59.46.41.55.65.78c4.52,4.35,10.41,6.55,17.51,6.55,6.78,0,12.11-2.14,15.86-6.34,3.29-3.71,6.56-9.77,10-18.52a4.14,4.14,0,0,0-1.05-4.55,4.94,4.94,0,0,0-.49-.3,4.19,4.19,0,0,0-.75-.94,4.94,4.94,0,0,0-.49-.3,4.19,4.19,0,0,0-.75-.94,4.94,4.94,0,0,0-.49-.3,4.19,4.19,0,0,0-.75-.94,4,4,0,0,0-.49-.3,4.19,4.19,0,0,0-.75-.94,4.8,4.8,0,0,0-.48-.3,4.54,4.54,0,0,0-.76-.94,4.8,4.8,0,0,0-.48-.3,4.54,4.54,0,0,0-.76-.94,3.88,3.88,0,0,0-.48-.3,4,4,0,0,0-.76-.93,4.11,4.11,0,0,0-2.79-1.09,3.2,3.2,0,0,0-.42.1c.06-.25.08-.5.15-.75Zm-63.43,60.26c-1.13,5.17-3.22,9.25-6.2,12.11a14.32,14.32,0,0,1-6.09,3.76c-.09-1.19-.15-2.5-.15-4.11,0-6.94,1.28-15.13,3.81-24.33a77.45,77.45,0,0,1,10.43-23.42,21.63,21.63,0,0,1,7.37-7.15Zm-136.8-37.26.08.06a13,13,0,0,0,1.16,1.18l.08,0a11,11,0,0,0,1.16,1.19l.07,0a12,12,0,0,0,1.17,1.19l.07,0a14.73,14.73,0,0,0,1.17,1.19l.07,0a14.73,14.73,0,0,0,1.17,1.19l.07.05a14.69,14.69,0,0,0,1.16,1.19l.08.05a13,13,0,0,0,1.16,1.18,14.72,14.72,0,0,0,9.84,3.53c.61,0,1.19-.09,1.78-.14l-28.92,50.57a15.52,15.52,0,0,0-3.4-10.34,12.6,12.6,0,0,0-1.16-1.14l-.08-.1a12.55,12.55,0,0,0-1.16-1.13l-.07-.11a12.73,12.73,0,0,0-1.17-1.13.41.41,0,0,1-.07-.11,12.73,12.73,0,0,0-1.17-1.13.41.41,0,0,1-.07-.11,12.73,12.73,0,0,0-1.17-1.13,1.05,1.05,0,0,1-.07-.11,12.73,12.73,0,0,0-1.17-1.13s0-.07-.07-.1a12.77,12.77,0,0,0-1.17-1.14.61.61,0,0,0-.07-.1c-1.67-2-4.84-4.32-10.42-4.32a21.53,21.53,0,0,0-4.74.56l32.33-55.83a19.79,19.79,0,0,0-.89,5.67A12.94,12.94,0,0,0,741.9,1171.67ZM540,1174.92a21.45,21.45,0,0,1,5.64-6.11,11.9,11.9,0,0,1,3.58-1.77,41.73,41.73,0,0,1,.29,5.12,110.29,110.29,0,0,1-3.09,24.72,63.43,63.43,0,0,1-9.49,22.23,19.12,19.12,0,0,1-7.67,6.77Zm107.79-3.2a12,12,0,0,0,1.17,1.19l.07,0a12,12,0,0,0,1.17,1.19l.07,0a11,11,0,0,0,1.17,1.19l.07,0a14.69,14.69,0,0,0,1.16,1.19l.08,0a14.69,14.69,0,0,0,1.16,1.19l.08.05a14.69,14.69,0,0,0,1.16,1.19l.08.05a13,13,0,0,0,1.16,1.18,14.72,14.72,0,0,0,9.84,3.53c.61,0,1.19-.09,1.78-.14l-25.84,45.18a4,4,0,0,0-.73-.68,1.86,1.86,0,0,0-.2-.1,4.18,4.18,0,0,0-1-1.14,1.86,1.86,0,0,0-.2-.1,4.18,4.18,0,0,0-1-1.14,1.86,1.86,0,0,0-.2-.1,4.18,4.18,0,0,0-1-1.14,4.11,4.11,0,0,0-2.4-.77,4.17,4.17,0,0,0-1.63.33c-.31.13-.68.19-1,.3.07-.28.09-.56.17-.84l11.83-55.86a12,12,0,0,0,3,4Z"/><path d="M1125.73,1157.66c-.1-.1-.24-.15-.35-.24-.3-.33-.57-.68-.88-1-.11-.1-.25-.15-.36-.24-.3-.33-.57-.68-.88-1-.11-.1-.25-.14-.36-.24-.3-.33-.57-.68-.88-1-.11-.1-.25-.14-.36-.23-.29-.34-.57-.69-.88-1a2.82,2.82,0,0,0-.36-.24c-.29-.34-.57-.69-.88-1a2.82,2.82,0,0,0-.36-.24c-.29-.34-.57-.69-.88-1a2.25,2.25,0,0,0-.36-.24c-.29-.33-.56-.69-.88-1a4.09,4.09,0,0,0-2.92-1.21h-.44a4.14,4.14,0,0,0-3.31,1.65,30.41,30.41,0,0,1-6.88,6.26,33.06,33.06,0,0,1-8.71,4.51,85.46,85.46,0,0,1-12,1.46,108.3,108.3,0,0,0-15.19,2.16,4.05,4.05,0,0,0-1.59-1.88,3.87,3.87,0,0,0-1.24-1.24,4,4,0,0,0-1.24-1.24,4,4,0,0,0-1.24-1.24A4.07,4.07,0,0,0,1061,1157a4.15,4.15,0,0,0-1.23-1.24,4.31,4.31,0,0,0-1.24-1.24,4.09,4.09,0,0,0-2.4-1.75,28.79,28.79,0,0,1-7.21-2.92,26.2,26.2,0,0,1-3.24-13.25,34.76,34.76,0,0,1,2.85-13.88,27.14,27.14,0,0,1,7.33-10.25,13.58,13.58,0,0,1,7-3.3,2.28,2.28,0,0,1,0,.26,19.51,19.51,0,0,1-2.1,8.95,13.53,13.53,0,0,1-5,5.8,4.13,4.13,0,0,0-1.16,6,23,23,0,0,0,2.73,3c.4.45.82.84,1.24,1.24s.82.84,1.24,1.24.82.84,1.24,1.24.82.84,1.24,1.24.82.84,1.24,1.24.82.84,1.24,1.24a19.7,19.7,0,0,0,15.25,6.68,18.82,18.82,0,0,0,15.32-7.26c3.68-4.55,5.54-10.39,5.54-17.35a31.85,31.85,0,0,0-9.61-23.45c-.39-.42-.82-.82-1.24-1.24s-.82-.82-1.24-1.23-.82-.83-1.23-1.24-.83-.83-1.24-1.24-.83-.83-1.24-1.24-.83-.83-1.24-1.24c-.85-.92-1.74-1.82-2.71-2.68-7.21-6.39-16.43-9.63-27.4-9.63a53.34,53.34,0,0,0-45.23,25,45.88,45.88,0,0,0-7.12,24.52c0,6.87,1.09,12.78,3.23,17.54a34.5,34.5,0,0,0,6.42,9.45,57.9,57.9,0,0,0-16.34,10.7,67.09,67.09,0,0,0-15.72,21.69,61.18,61.18,0,0,0-5.77,25.61c0,12.17,3.87,22.15,11.41,29.77.39.43.83.83,1.24,1.24s.83.82,1.24,1.24.83.82,1.24,1.24.83.82,1.24,1.24.83.82,1.24,1.24.83.82,1.24,1.24a40.32,40.32,0,0,0,3.22,3.18c8.74,7.7,20.73,11.6,35.65,11.6a73.77,73.77,0,0,0,35-8.3,67.39,67.39,0,0,0,25.43-23.43,77.67,77.67,0,0,0,11.31-31.16,32.47,32.47,0,0,0,6.41-1.16,36,36,0,0,0,16.51-10.94c4.53-5.29,6.83-11.08,6.83-17.21a25.57,25.57,0,0,0-.86-6.32A24,24,0,0,0,1125.73,1157.66Zm-82.21,32.56a22,22,0,0,0,1.07,7,29.3,29.3,0,0,0,4.65,9.24,4.18,4.18,0,0,0,.85.67c.13.18.25.39.39.56a4,4,0,0,0,.85.68c.13.18.25.39.39.56a4.18,4.18,0,0,0,.84.68c.14.18.26.39.4.56a3.91,3.91,0,0,0,.84.68c.14.18.26.39.4.56a4.24,4.24,0,0,0,.84.68c.14.18.26.38.4.56a4.24,4.24,0,0,0,.84.68c.14.18.26.38.4.56a3.87,3.87,0,0,0,.84.67c.14.19.26.39.4.57a4.13,4.13,0,0,0,4.54,1.36l.34-.11a42.7,42.7,0,0,1-8.84,6.83,33.39,33.39,0,0,1-16.66,4.74,20.08,20.08,0,0,1-6.94-1.13,27,27,0,0,1-1.84-10.28,45.48,45.48,0,0,1,5-20.3,52.31,52.31,0,0,1,12.44-16.2A23.2,23.2,0,0,0,1043.52,1190.22Z"/><path d="M1550.94,1100a4.18,4.18,0,0,0-.53-.74,4.94,4.94,0,0,0-.7-.5,4.83,4.83,0,0,0-.54-.74,4.19,4.19,0,0,0-.7-.49,4.46,4.46,0,0,0-.54-.75,4.19,4.19,0,0,0-.7-.49,4,4,0,0,0-.54-.75,4.19,4.19,0,0,0-.7-.49,3.6,3.6,0,0,0-.54-.74,3.73,3.73,0,0,0-.7-.5,3.9,3.9,0,0,0-.54-.74,3.44,3.44,0,0,0-.7-.5,4.24,4.24,0,0,0-.54-.74,4.12,4.12,0,0,0-3-1.32,5.07,5.07,0,0,0-.55,0l-32.58,4.4a4.14,4.14,0,0,0-3.49,3.23l-23.57,110.36c-.25,1.24-.45,2.39-.64,3.52a25.36,25.36,0,0,1-5.69,8.77,15.71,15.71,0,0,1-4.53,3.21c0-.17.06-.35.1-.53l25.32-118.89a4.11,4.11,0,0,0-1-3.67,3.87,3.87,0,0,0-.7-.5,4.24,4.24,0,0,0-.54-.74,4.43,4.43,0,0,0-.7-.5,3.78,3.78,0,0,0-.54-.74,3.82,3.82,0,0,0-.7-.49,3.91,3.91,0,0,0-.53-.75,4.19,4.19,0,0,0-.7-.49,4.46,4.46,0,0,0-.54-.75,4.19,4.19,0,0,0-.7-.49,4,4,0,0,0-.54-.74,3.73,3.73,0,0,0-.7-.5,4.38,4.38,0,0,0-.54-.74,3.73,3.73,0,0,0-.7-.5,3.9,3.9,0,0,0-.54-.74,4.14,4.14,0,0,0-3-1.33,5.09,5.09,0,0,0-.55,0l-32.59,4.4a4.15,4.15,0,0,0-3.49,3.23l-23.51,110.12a27,27,0,0,1-6.82,12.09,15.75,15.75,0,0,1-4.54,3.21c0-.17.06-.35.11-.53l15.85-74.86a4.15,4.15,0,0,0-.83-3.46,4.24,4.24,0,0,0-1-.81c-.09-.13-.11-.3-.21-.43a4.05,4.05,0,0,0-1-.81c-.09-.13-.11-.3-.21-.43a4.29,4.29,0,0,0-1-.81c-.09-.13-.11-.3-.21-.43a4,4,0,0,0-1-.8,3.55,3.55,0,0,0-.21-.44,4,4,0,0,0-1-.8,2.86,2.86,0,0,0-.21-.43s-.08-.06-.11-.09a21.37,21.37,0,0,0,8.52-5.12,20.66,20.66,0,0,0,6.41-15.28,21,21,0,0,0-6.38-15.36c-.21-.22-.46-.36-.68-.57s-.35-.46-.56-.67-.46-.36-.68-.56-.34-.47-.56-.68-.46-.36-.68-.56-.34-.46-.56-.68-.46-.36-.67-.56-.35-.46-.57-.68-.45-.36-.67-.56-.35-.46-.56-.68-.46-.36-.68-.56-.35-.46-.56-.68-.46-.36-.68-.56-.35-.46-.56-.67a21,21,0,0,0-15.36-6.39,20.63,20.63,0,0,0-15.28,6.42,21.19,21.19,0,0,0-6.25,15.32,20.82,20.82,0,0,0,6.28,15.26c.21.21.46.36.67.56s.35.46.57.68.45.36.67.56.35.46.57.68.45.35.67.56.35.46.56.67.46.36.68.57.35.46.56.67.46.36.68.57.35.46.56.67.46.36.68.56.35.47.56.68.46.36.68.56.35.47.56.68c.47.47,1,.81,1.48,1.23h-16.7a4.13,4.13,0,0,0-4,3.27l-2.11,9.94c-.17-.19-.37-.35-.56-.53a1,1,0,0,0-.12-.17c-.34-.41-.75-.7-1.12-1.07a1,1,0,0,0-.12-.17c-.34-.41-.75-.7-1.12-1.07a1.77,1.77,0,0,0-.12-.17c-.34-.41-.75-.7-1.11-1.07a1.77,1.77,0,0,1-.12-.17c-.35-.41-.76-.7-1.12-1.07a1.77,1.77,0,0,1-.12-.17c-.35-.41-.76-.7-1.12-1.07a1,1,0,0,1-.12-.17c-3.53-4.18-8.33-6.31-14.28-6.31a29.84,29.84,0,0,0-15.18,4.08c-.55.32-1.16.77-1.73,1.12a4,4,0,0,0-1-.76,4.3,4.3,0,0,0-.21-.43,3.84,3.84,0,0,0-1-.81,4.3,4.3,0,0,0-.21-.43,3.84,3.84,0,0,0-1-.81,3.42,3.42,0,0,0-.21-.43,4.13,4.13,0,0,0-3.21-1.53h-31.7a4.12,4.12,0,0,0-4,3.27l-15,70.51a74.73,74.73,0,0,1-4.36,10.86l15.15-71a3.79,3.79,0,0,0-1.86-4.28c-.09-.13-.11-.3-.21-.42a3.84,3.84,0,0,0-1-.81,2.86,2.86,0,0,0-.21-.43,3.84,3.84,0,0,0-1-.81,3.42,3.42,0,0,0-.21-.43,3.84,3.84,0,0,0-1-.81,2.44,2.44,0,0,0-.21-.43,3.84,3.84,0,0,0-1-.81,2.44,2.44,0,0,0-.21-.43,4.19,4.19,0,0,0-1-.81,3.48,3.48,0,0,0-.22-.43,4.19,4.19,0,0,0-1-.81c-.09-.14-.11-.3-.21-.43a4.15,4.15,0,0,0-3.22-1.53h-31.7a4.13,4.13,0,0,0-4,3.06c-.15-.11-.31-.23-.47-.33-3.68-2.58-8.85-3.83-15.8-3.83a46.83,46.83,0,0,0-33.58,13.6,83.22,83.22,0,0,0-20.39,32,105.3,105.3,0,0,0-6.74,35.64c0,13.24,3.21,23.24,9.54,29.74.28.29.59.55.88.83.13.13.23.28.36.41.28.29.59.55.88.83.13.13.23.28.36.41.28.29.59.54.88.82.12.14.23.29.35.42.29.29.6.54.89.82.12.13.23.29.35.41.29.3.6.55.89.83.12.13.23.29.35.41.29.3.6.55.89.83.12.13.23.28.35.41.29.3.6.55.89.83.12.13.23.28.35.41a32.06,32.06,0,0,0,9.67,6.85,27.84,27.84,0,0,0-10.71,22.55c0,7.49,2.45,13.47,7.22,17.87.4.43.81.84,1.24,1.24s.81.84,1.24,1.24.81.84,1.24,1.24.8.84,1.24,1.24.8.84,1.24,1.24.8.84,1.24,1.24a23.24,23.24,0,0,0,2.65,2.48c5.43,4.23,12.21,6.37,20.15,6.37a44.05,44.05,0,0,0,26.91-8.86c8-6,13.63-16.67,16.77-31.85l2.79-13.41a56,56,0,0,0,11.94-5.33,3,3,0,0,0,.2.4,3.8,3.8,0,0,0,1,.81c.09.14.11.3.21.43a4,4,0,0,0,1,.81c.09.14.11.3.21.43a4.14,4.14,0,0,0,3.21,1.53h31.71a4.13,4.13,0,0,0,4-3.28l17.34-82.35a47,47,0,0,1,6.33-4.94c.08.11.14.25.22.35a8.18,8.18,0,0,0,1.8,1.82,8,8,0,0,0,1.23,1.24,8.55,8.55,0,0,0,1.24,1.24,9.08,9.08,0,0,0,1.24,1.24,9.08,9.08,0,0,0,1.24,1.24,9.08,9.08,0,0,0,1.24,1.24,8.55,8.55,0,0,0,1.24,1.24c2,2.26,5,3.46,9.29,3.46a22.7,22.7,0,0,0,5.61-.75l-5.34,25.22a79.7,79.7,0,0,0-1.84,15.12c0,9.9,2.58,17.54,7.68,22.71.25.26.53.49.8.74s.28.34.44.5.53.49.8.74.28.34.43.5.54.49.81.74.28.34.43.5.54.49.8.73.29.35.44.51.54.49.8.74.29.34.44.5.54.48.8.73.29.35.44.5.54.49.8.74.28.35.44.5c5.11,5.21,11.84,7.85,20,7.85,9.15,0,18.44-3.08,27.6-9.17a37.13,37.13,0,0,0,5.42-4.47c.15.15.31.29.47.43s.21.28.33.41c.29.29.6.55.91.83.12.13.21.28.33.41.29.29.6.55.91.83.11.13.21.28.33.41.29.29.6.55.9.83.12.13.21.28.34.4.29.3.6.56.9.84.12.13.21.28.34.4,5.1,5.21,11.84,7.85,20,7.85,9.15,0,18.44-3.08,27.6-9.17a36.6,36.6,0,0,0,5.24-4.32l.24.22c.1.11.17.24.27.34.31.32.64.6,1,.9.09.11.17.23.27.34.31.32.64.6,1,.9.09.11.17.23.27.34.31.32.64.6,1,.9.1.1.18.23.28.34.31.32.64.6,1,.9.1.1.18.23.28.33,5.11,5.3,11.85,8,20,8a28.28,28.28,0,0,0,19.12-7.07c5.44-4.75,8.54-11.43,9.21-19.85a4.14,4.14,0,0,0-1.7-3.69l-.21-.1a3.82,3.82,0,0,0-1-1.13c-.07,0-.14-.07-.2-.11a4,4,0,0,0-1-1.13c-.06,0-.14-.06-.2-.11a4,4,0,0,0-1-1.13,1.86,1.86,0,0,0-.2-.1,4,4,0,0,0-1-1.14,1.86,1.86,0,0,0-.2-.1,4.18,4.18,0,0,0-1-1.14,1.86,1.86,0,0,0-.2-.1,4.18,4.18,0,0,0-1-1.14l-.2-.1a4.18,4.18,0,0,0-1-1.14,4.11,4.11,0,0,0-2.4-.77,4.17,4.17,0,0,0-1.63.33,8.73,8.73,0,0,1-1,.3c.07-.28.1-.54.18-.84l25.32-118.89a4.14,4.14,0,0,0-1-3.67A3.94,3.94,0,0,0,1550.94,1100ZM1226.6,1211a19.66,19.66,0,0,1-6,10.44,14.68,14.68,0,0,1-5.68,3.32c-.09-1.19-.15-2.49-.15-4.09,0-6.94,1.28-15.13,3.81-24.34a77.48,77.48,0,0,1,10.43-23.41,21.56,21.56,0,0,1,7.29-7.1Z"/><path d="M990.2,837.77c.21.21.38.44.59.65s.44.39.65.59.38.44.59.65.44.39.65.59.38.44.59.65.44.38.65.59.38.44.59.65.44.38.65.59.38.44.59.64.43.39.65.6.38.43.59.64.43.39.65.6.38.43.59.64a30.2,30.2,0,0,0,22.12,9.1,30.82,30.82,0,0,0,22.27-9.06,30,30,0,0,0,9.3-22.16,30.56,30.56,0,0,0-9.27-22.3c-.21-.21-.44-.39-.65-.59s-.38-.43-.59-.64-.43-.39-.65-.6-.38-.43-.59-.64-.43-.39-.65-.6-.38-.43-.59-.64-.43-.39-.64-.59-.39-.44-.6-.65-.43-.39-.64-.59-.39-.44-.59-.65-.44-.39-.66-.59-.37-.44-.58-.65-.44-.39-.65-.59-.38-.44-.59-.65a30.56,30.56,0,0,0-22.3-9.27,30,30,0,0,0-22.15,9.3,30.82,30.82,0,0,0-9.07,22.27,30.25,30.25,0,0,0,9.09,22.12C989.76,837.39,990,837.57,990.2,837.77Z"/><path class="cls-2" d="M353.59,803.05q-21.6.71-33.09,16.47T309,874q0,12.69,2.4,17.66c1.59,3.32,2.4,5.21,2.4,5.66q-18.53,0-27.61-7.71t-9.09-25.55a84.79,84.79,0,0,1,12-44.41q12-20.07,38.23-32.41t66.71-12.35A187.21,187.21,0,0,1,416,776.65q24.69,2.4,35,2.4,18.18,0,30.87-4.12-1,3.09-3.77,13.55a40,40,0,0,1-9.78,17.83q-7,7.38-19,9.77-20.24,0-48-6.51l-14.41,68.24h50.07l-5.48,25.38H381.37l-27.78,129H304.21Z"/><path class="cls-2" d="M373.14,1109.3q-11-8.58-11-24.69,0-33.27,56.25-51.1L455.1,860.67h49.38l-34,159.12q16.47-5.47,26.41-16.46t16.8-32.58h14.41q-9.27,30.53-25,44.76a84.06,84.06,0,0,1-35.66,19.37l-5.15,24.69q-6.85,33.27-23.66,45.78a62.06,62.06,0,0,1-38.07,12.52Q384.12,1117.87,373.14,1109.3ZM404,1083.23q5.49-7.87,8.58-22.63l2.05-9.94Q381,1063,381,1079.81a11.4,11.4,0,0,0,3.08,7.88q3.09,3.43,8.58,3.43Q398.53,1091.12,404,1083.23Zm62.76-249.31a26.14,26.14,0,0,1-7.89-19.21,26.69,26.69,0,0,1,7.89-19.37A25.87,25.87,0,0,1,486,787.28a27.52,27.52,0,0,1,27.43,27.43,25.87,25.87,0,0,1-8.06,19.21A26.69,26.69,0,0,1,486,841.81,26.14,26.14,0,0,1,466.76,833.92Z"/><path class="cls-2" d="M523.34,1021q-14.07-13.18-14.06-41.32,0-23.67,9.26-52.13a121,121,0,0,1,30.18-49.21q20.91-20.75,53.16-20.75,37.71,0,37.72,32.92a61.51,61.51,0,0,1-11,35.33,81,81,0,0,1-29.15,25.89,94.22,94.22,0,0,1-38.76,11.14q-.69,10.29-.68,13.72,0,16.81,5.83,22.81t18.86,6q18.51,0,31.72-8.57t29-26.07h11.66q-38.07,63.45-94.31,63.44Q537.4,1034.19,523.34,1021Zm64.3-83.5a62.85,62.85,0,0,0,18.52-20.92,54.38,54.38,0,0,0,7-26.75q0-14.07-8.57-14.06-12.35,0-24.18,21.6t-17,49Q576.15,945.73,587.64,937.49Z"/><path class="cls-2" d="M668.74,860.67h49.39l-4.46,21.26a137.27,137.27,0,0,1,21.09-15.78,40,40,0,0,1,20.41-5.48q11,0,17.31,7.54a27.34,27.34,0,0,1,6.35,18.18,26,26,0,0,1-6.52,17.49q-6.51,7.54-18.17,7.54-7.56,0-10.12-3.6t-3.94-10.46a32,32,0,0,0-2.06-6.51,3.84,3.84,0,0,0-3.77-2.06,23.72,23.72,0,0,0-12.18,2.91,84.58,84.58,0,0,0-12.86,10.12l-27.43,130.32H632.39Z"/><path class="cls-2" d="M782.94,1020.82q-13-13.38-13-41.84,0-25.37,10.12-53.32t30.18-47.33Q830.27,859,858.05,859q14.06,0,20.92,4.8t6.85,12.69v1.37l16.81-78.87,50.75-6.86L913.94,977.27a42.65,42.65,0,0,0-1.37,11q0,6.87,3.26,9.78t10.8,2.91q9.6,0,16.64-8.23t11.14-22h14.41q-20.93,61.39-68.94,61.39-14.05,0-22.8-7.55t-10.8-21.95a82.77,82.77,0,0,1-21.44,22.64q-12.52,8.92-29.32,8.91Q796,1034.19,782.94,1020.82Zm71.5-27.43q8.4-7.54,11.49-20.93v-1.71l16.81-78.53q-3.09-12-14.06-12-13.73,0-24.69,15.95t-17.15,38.41q-6.18,22.47-6.18,39.61t5,22a16.85,16.85,0,0,0,12.17,4.8Q846,1000.93,854.44,993.39Z"/><path class="cls-2" d="M961.78,1023.91q-10.11-10.29-10.11-30.87,0-8.56,2.74-22.29l23.32-110.08h49.38l-24.69,116.6a42.65,42.65,0,0,0-1.37,11q0,6.87,3.26,9.78t10.8,2.91q9.95,0,18.52-8.4T1046,970.75h14.4q-12.69,37-32.58,50.24t-39.44,13.2Q971.91,1034.19,961.78,1023.91Zm30.7-189.65a26.12,26.12,0,0,1-7.89-19.2,26.7,26.7,0,0,1,7.89-19.38,25.85,25.85,0,0,1,19.2-8.06,27.52,27.52,0,0,1,27.44,27.44,25.85,25.85,0,0,1-8.06,19.2,26.72,26.72,0,0,1-19.38,7.89A26.12,26.12,0,0,1,992.48,834.26Z"/><path class="cls-2" d="M1139.08,1023.05q-9.76-11.14-9.77-27.61a89.07,89.07,0,0,1,1.71-16.29q1.73-9.07,3.6-17.66c1.26-5.71,2.11-9.37,2.58-11q2.73-12,5.14-23.67a97.91,97.91,0,0,0,2.4-18.86q0-17.49-12.35-17.49-8.91,0-15.77,8.75t-11,22.8l-23.32,110.09h-49.39l36.35-171.47h49.39l-3.78,17.83Q1132,859.3,1155,859.3q17.49,0,27.78,9.6t10.29,29.15a115.38,115.38,0,0,1-2.41,22.12q-2.4,12.18-6.85,29.66-2.76,10.63-5,20.75a78.69,78.69,0,0,0-2.23,15.95q0,6.86,3.09,10.63t10.63,3.77q10.29,0,16.46-7.37t12.35-22.81h14.4q-12.69,37.72-29.32,50.58t-34.46,12.86Q1148.86,1034.19,1139.08,1023.05Z"/><path class="cls-2" d="M1252.42,1109.3q-11-8.58-11-24.69,0-19.54,15.77-31.38t40.13-19.72l4.11-18.18q-17.49,18.87-41.15,18.86-19.55,0-32.58-13.37t-13-41.84q0-25.37,10.11-53.32T1255,878.33Q1275.06,859,1302.83,859q14.06,0,20.92,4.8t6.86,12.69v2.06l3.77-17.83h49.39l-34,159.12q16.46-5.47,26.4-16.46T1393,970.75h14.4q-9.26,30.53-25,44.76a84,84,0,0,1-35.67,19.37l-5.14,24.69q-6.87,33.27-23.67,45.78a62.06,62.06,0,0,1-38.06,12.52Q1263.39,1117.87,1252.42,1109.3Zm30.87-26.07q5.48-7.87,8.57-22.63l2.06-9.94q-33.62,12.35-33.61,29.15a11.41,11.41,0,0,0,3.09,7.88q3.07,3.43,8.57,3.43Q1277.79,1091.12,1283.29,1083.23Zm15.43-89.5q8.22-7.2,11.32-19.55l17.49-81.28c0-2.74-1.15-5.54-3.43-8.4s-5.83-4.29-10.64-4.29q-13.71,0-24.69,15.95t-17.14,38.41q-6.18,22.47-6.18,39.61t5,22a16.85,16.85,0,0,0,12.17,4.8Q1290.49,1000.93,1298.72,993.73Z"/><path class="cls-2" d="M1403,1022.71q-12.35-11.49-12.35-32.41a78.08,78.08,0,0,1,2.4-19.55l36.7-171.81,50.75-6.86L1464,869.24q9.6-5.82,15.78-7.72a42.26,42.26,0,0,1,12.34-1.88q40.47,0,40.47,58.64,0,23.67-9.09,50.58a108.19,108.19,0,0,1-30.18,46.13q-21.09,19.21-54.7,19.2Q1415.3,1034.19,1403,1022.71Zm74.76-35q9.26-13.2,14.74-32.93a141.09,141.09,0,0,0,5.49-37.89q0-13.71-4.8-23.32t-13.37-9.6a49,49,0,0,0-11.49,1.54q-6.35,1.54-8.75,4.63l-18.86,87.11a32.76,32.76,0,0,0-1,7.88q0,15.78,18.18,15.78Q1468.46,1000.93,1477.73,987.73Z"/><path class="cls-2" d="M1570.49,1107.41a33.48,33.48,0,0,1-12.17-26.57q0-15.1,7.54-24.7a51.56,51.56,0,0,1,19.55-15.08q12-5.5,32.24-11.67l3.42-15.08q-17.49,19.89-41.83,19.88-16.47,0-26.58-10.28T1542.54,993q0-8.56,2.74-22.29l23.32-110.08H1618l-24.69,116.6a35,35,0,0,0-1,8.57q0,15.09,10.29,15.09,9.59,0,16.46-8.06t11-22.12l23.32-110.08H1703l-41.84,198.9q-6.87,32.92-24.18,45.61a63.24,63.24,0,0,1-38.24,12.69A42,42,0,0,1,1570.49,1107.41Zm32.07-26.4q5.48-6.36,8.57-20.41l4.11-20.23q-18.18,6.17-28.12,14.4a26.33,26.33,0,0,0-9.94,21.27q0,4.11,4.11,7.71a14.16,14.16,0,0,0,9.61,3.6Q1597.07,1087.35,1602.56,1081Z"/><path class="cls-2" d="M503,1131h31.7l-3.52,16.52a38.28,38.28,0,0,1,25.76-9.47q12.33,0,19.59,8.14t7.27,26.65a127.18,127.18,0,0,1-5.07,35.11,70,70,0,0,1-17.17,30.17q-12.1,12.44-31.92,12.44-14.1,0-18.72-7.93l-11.45,53.72-33.24,7.93Zm37.31,90.49a67.23,67.23,0,0,0,10.13-23.66,113.93,113.93,0,0,0,3.2-25.66q0-18.27-11-18.27a14,14,0,0,0-8,2.86,26,26,0,0,0-7.16,7.93l-13,61.65q1.77,5.07,8.37,5.06Q533.33,1231.39,540.26,1221.48Z"/><path class="cls-2" d="M594,1243.94q-6.5-6.6-6.49-19.82a76.85,76.85,0,0,1,1.76-14.31l15-70.67h31.71L620.07,1214a27.1,27.1,0,0,0-.88,7q0,4.41,2.1,6.28t6.93,1.87a17.8,17.8,0,0,0,7-1.32q-.88,11-7.82,16.84a24.66,24.66,0,0,1-16.4,5.84Q600.48,1250.55,594,1243.94Zm19.71-121.75a16.79,16.79,0,0,1-5.07-12.34,17.12,17.12,0,0,1,5.07-12.43,16.59,16.59,0,0,1,12.33-5.18,17.67,17.67,0,0,1,17.61,17.61,16.61,16.61,0,0,1-5.17,12.34,17.18,17.18,0,0,1-12.44,5.06A16.78,16.78,0,0,1,613.69,1122.19ZM691.41,1151H679.08a46.06,46.06,0,0,0-9.14.66c-2,.44-3,1.39-3,2.86,0,.3.4.63,1.21,1s1.21,1.65,1.21,3.85q0,5.73-3.52,8.7a12.58,12.58,0,0,1-8.37,3,10.64,10.64,0,0,1-7.15-2.54,8.87,8.87,0,0,1-3-7.15,19.31,19.31,0,0,1,3.19-9.91,25.92,25.92,0,0,1,9-8.81,25.35,25.35,0,0,1,13.33-3.52H729.5l-53.94,93.13a47.92,47.92,0,0,1,4.84.44,106.62,106.62,0,0,0,11.89.88q9.47,0,10.35-4.4a4.64,4.64,0,0,1-3.08-1.43,4.55,4.55,0,0,1-1.11-3.2c0-2.34,1.11-4.51,3.31-6.49s5.21-3,9-3c3.22,0,5.64,1,7.26,2.86a11.58,11.58,0,0,1,2.42,7.71,20.93,20.93,0,0,1-3.3,10.79,26.31,26.31,0,0,1-9.47,9.13,27.23,27.23,0,0,1-14.09,3.64H635.27Z"/><path class="cls-2" d="M785.64,1151H773.31a45.88,45.88,0,0,0-9.13.66c-2,.44-3,1.39-3,2.86,0,.3.41.63,1.21,1s1.22,1.65,1.22,3.85q0,5.73-3.53,8.7a12.57,12.57,0,0,1-8.36,3,10.67,10.67,0,0,1-7.16-2.54,8.87,8.87,0,0,1-3-7.15,19.31,19.31,0,0,1,3.19-9.91,26,26,0,0,1,9-8.81,25.31,25.31,0,0,1,13.32-3.52h56.58l-53.94,93.13a47.92,47.92,0,0,1,4.84.44,106.78,106.78,0,0,0,11.89.88q9.47,0,10.35-4.4a4.64,4.64,0,0,1-3.08-1.43,4.54,4.54,0,0,1-1.1-3.2,8.68,8.68,0,0,1,3.3-6.49q3.3-3,9-3c3.23,0,5.65,1,7.26,2.86a11.53,11.53,0,0,1,2.43,7.71,21,21,0,0,1-3.31,10.79,26.36,26.36,0,0,1-9.46,9.13,27.29,27.29,0,0,1-14.1,3.64H729.5Z"/><path class="cls-2" d="M829.24,1242q-8.37-8.58-8.37-26.86,0-16.29,6.49-34.24a78.8,78.8,0,0,1,19.38-30.38A42.69,42.69,0,0,1,877.45,1138q9,0,13.43,3.08a9.51,9.51,0,0,1,4.41,8.15v1.54l2.42-11.67h31.7L913.56,1214a27.1,27.1,0,0,0-.88,7q0,4.41,2.09,6.28t6.94,1.87a11,11,0,0,0,4.84-.88q-4.84,12.33-9.24,17.28t-12.78,5q-9,0-14.64-5.4T883,1230.07q-13.44,20.48-32.81,20.48A28,28,0,0,1,829.24,1242ZM875.36,1224q5.4-5.18,7.38-14.21l10.57-49.75a9,9,0,0,0-2.21-5.62q-2.21-2.75-6.82-2.75-8.81,0-15.85,10.24a80.82,80.82,0,0,0-11,24.66q-4,14.42-4,25.43t3.19,14.09a10.78,10.78,0,0,0,7.81,3.08Q870,1229.19,875.36,1224Z"/><path class="cls-2" d="M1119.64,1165.12q0,7.71-5.83,14.53a29,29,0,0,1-23.45,10.79q-2,18.72-11.12,32.92a63.13,63.13,0,0,1-23.89,22,69.42,69.42,0,0,1-33,7.82q-20.93,0-32.92-10.57t-12-28.62a57,57,0,0,1,5.39-23.89,62.86,62.86,0,0,1,14.76-20.37,52,52,0,0,1,20.58-11.89V1157a34.39,34.39,0,0,1-9.68-12.11q-2.87-6.37-2.87-15.85a41.68,41.68,0,0,1,6.5-22.35,49.2,49.2,0,0,1,41.72-23q15,0,24.66,8.58a27.86,27.86,0,0,1,9.69,21.8q0,9-4.63,14.75a14.81,14.81,0,0,1-12.11,5.73,15.92,15.92,0,0,1-13.43-6.83,17.7,17.7,0,0,0,6.5-7.49,23.88,23.88,0,0,0,2.53-10.79q0-6.15-3.08-9.68a10.55,10.55,0,0,0-8.37-3.52,17,17,0,0,0-11,4.4,31,31,0,0,0-8.47,11.78,38.65,38.65,0,0,0-3.2,15.52q0,11,5.95,18.61a29.1,29.1,0,0,0,16.29,10.23v.88a43,43,0,0,0-19.48,9.58,56.09,56.09,0,0,0-14.54,18.49,49.52,49.52,0,0,0-5.39,22.13q0,11.46,5.73,17.84t15.85,6.38a37.35,37.35,0,0,0,18.71-5.28,48.7,48.7,0,0,0,15.85-14.75,54,54,0,0,0,8.81-21.36,41.84,41.84,0,0,0-10.13,1.32q-12.11,4-17.39,11.67l-.66.22a24.71,24.71,0,0,1-4-7.93,17.86,17.86,0,0,1-.88-5.72,19.68,19.68,0,0,1,5.28-13.43,28.48,28.48,0,0,1,13.21-8.37,92.32,92.32,0,0,1,16.95-2.64,88.62,88.62,0,0,0,12.55-1.54,36.43,36.43,0,0,0,10.24-5.17,34.54,34.54,0,0,0,7.82-7.16h.44a19.83,19.83,0,0,1,4.84,8.15A20.88,20.88,0,0,1,1119.64,1165.12Z"/><path class="cls-2" d="M1193.62,1298.77q-7-5.52-7-15.86a24,24,0,0,1,10.13-20.14q10.13-7.61,25.76-12.66l2.64-11.67q-11.22,12.11-26.42,12.11a28,28,0,0,1-20.91-8.59q-8.37-8.58-8.37-26.86,0-16.29,6.49-34.24a78.8,78.8,0,0,1,19.38-30.38A42.69,42.69,0,0,1,1226,1138q9,0,13.43,3.08a9.51,9.51,0,0,1,4.41,8.15v1.32l2.42-11.45h31.7l-21.79,102.16a39,39,0,0,0,16.95-10.57q6.39-7,10.79-20.92h9.25q-6,19.61-16.08,28.74a53.92,53.92,0,0,1-22.89,12.44l-3.31,15.85q-4.41,21.36-15.19,29.39a39.86,39.86,0,0,1-24.44,8Q1200.67,1304.27,1193.62,1298.77Zm19.81-16.74q3.52-5.07,5.51-14.53l1.32-6.39q-21.59,7.94-21.58,18.72a7.36,7.36,0,0,0,2,5.06,7,7,0,0,0,5.51,2.21Q1209.91,1287.1,1213.43,1282Zm9.91-57.47a23.82,23.82,0,0,0,7.27-12.54l11.23-52.19a8.73,8.73,0,0,0-2.21-5.39q-2.2-2.75-6.82-2.75-8.8,0-15.85,10.24a80.82,80.82,0,0,0-11,24.66q-4,14.42-4,25.43t3.19,14.09a10.78,10.78,0,0,0,7.81,3.08Q1218.06,1229.19,1223.34,1224.56Z"/><path class="cls-2" d="M1298.86,1139.14h31.7l-2.86,13.65a88.4,88.4,0,0,1,13.54-10.13,25.68,25.68,0,0,1,13.1-3.52,13.79,13.79,0,0,1,11.12,4.84,17.56,17.56,0,0,1,4.07,11.67,16.65,16.65,0,0,1-4.18,11.23q-4.18,4.84-11.67,4.84c-3.23,0-5.39-.77-6.5-2.31a17.59,17.59,0,0,1-2.53-6.71,19.92,19.92,0,0,0-1.32-4.18,2.45,2.45,0,0,0-2.42-1.33,15.22,15.22,0,0,0-7.82,1.88,53.43,53.43,0,0,0-8.25,6.49l-17.62,83.67h-31.7Z"/><path class="cls-2" d="M1371.4,1243.94q-6.5-6.6-6.49-19.82a76.85,76.85,0,0,1,1.76-14.31l15-70.67h31.71L1397.49,1214a27.1,27.1,0,0,0-.88,7q0,4.41,2.09,6.28t6.94,1.87q6.38,0,11.89-5.39a30.91,30.91,0,0,0,7.93-14h9.24q-8.15,23.79-20.91,32.26t-25.32,8.48Q1377.9,1250.55,1371.4,1243.94Zm19.71-121.75a16.79,16.79,0,0,1-5.07-12.34,17.12,17.12,0,0,1,5.07-12.43,16.59,16.59,0,0,1,12.33-5.18,17.67,17.67,0,0,1,17.61,17.61,16.65,16.65,0,0,1-5.17,12.34,17.18,17.18,0,0,1-12.44,5.06A16.78,16.78,0,0,1,1391.11,1122.19Z"/><path class="cls-2" d="M1430.19,1243.94q-6.5-6.6-6.5-19.82a76.15,76.15,0,0,1,1.77-14.31l23.55-110.3,32.59-4.41L1456.28,1214a27.1,27.1,0,0,0-.88,7c0,2.94.69,5,2.09,6.28s3.71,1.87,6.94,1.87q6.38,0,11.89-5.39a30.89,30.89,0,0,0,7.92-14h9.25q-8.15,23.79-20.92,32.26t-25.32,8.48Q1436.69,1250.55,1430.19,1243.94Z"/><path class="cls-2" d="M1488.53,1243.83q-6.48-6.7-6.49-20.15a76.66,76.66,0,0,1,1.76-14.3l23.56-110.31,32.58-4.4-25.32,118.89a25,25,0,0,0-.88,6.38q0,8.8,9,8.81a17.8,17.8,0,0,0,7-1.32q-.88,11-7.82,17.06a24.11,24.11,0,0,1-16.4,6.06Q1495,1250.55,1488.53,1243.83Z"/></svg>